<?xml version="1.0" encoding="utf-8" standalone="no"?>
<!DOCTYPE svg PUBLIC "-//W3C//DTD SVG 1.1//EN"
  "http://www.w3.org/Graphics/SVG/1.1/DTD/svg11.dtd">
<svg xmlns:xlink="http://www.w3.org/1999/xlink" width="460.8pt" height="345.6pt" viewBox="0 0 460.8 345.6" xmlns="http://www.w3.org/2000/svg" version="1.1">
 <metadata>
  <rdf:RDF xmlns:dc="http://purl.org/dc/elements/1.1/" xmlns:cc="http://creativecommons.org/ns#" xmlns:rdf="http://www.w3.org/1999/02/22-rdf-syntax-ns#">
   <cc:Work>
    <dc:type rdf:resource="http://purl.org/dc/dcmitype/StillImage"/>
    <dc:date>2023-09-30T06:17:34.564417</dc:date>
    <dc:format>image/svg+xml</dc:format>
    <dc:creator>
     <cc:Agent>
      <dc:title>Matplotlib v3.7.1, https://matplotlib.org/</dc:title>
     </cc:Agent>
    </dc:creator>
   </cc:Work>
  </rdf:RDF>
 </metadata>
 <defs>
  <style type="text/css">*{stroke-linejoin: round; stroke-linecap: butt}</style>
 </defs>
 <g id="figure_1">
  <g id="patch_1">
   <path d="M 0 345.6 
L 460.8 345.6 
L 460.8 0 
L 0 0 
z
" style="fill: #ffffff"/>
  </g>
  <g id="axes_1">
   <g id="patch_2">
    <path d="M 57.6 307.584 
L 414.72 307.584 
L 414.72 41.472 
L 57.6 41.472 
z
" style="fill: #ffffff"/>
   </g>
   <g id="matplotlib.axis_1">
    <g id="xtick_1">
     <g id="line2d_1">
      <defs>
       <path id="m95b0e91be1" d="M 0 0 
L 0 3.5 
" style="stroke: #000000; stroke-width: 0.8"/>
      </defs>
      <g>
       <use xlink:href="#m95b0e91be1" x="73.832727" y="307.584" style="stroke: #000000; stroke-width: 0.8"/>
      </g>
     </g>
     <g id="text_1">
      <!-- 0 -->
      <g transform="translate(70.651477 322.182437) scale(0.1 -0.1)">
       <defs>
        <path id="DejaVuSans-30" d="M 2034 4250 
Q 1547 4250 1301 3770 
Q 1056 3291 1056 2328 
Q 1056 1369 1301 889 
Q 1547 409 2034 409 
Q 2525 409 2770 889 
Q 3016 1369 3016 2328 
Q 3016 3291 2770 3770 
Q 2525 4250 2034 4250 
z
M 2034 4750 
Q 2819 4750 3233 4129 
Q 3647 3509 3647 2328 
Q 3647 1150 3233 529 
Q 2819 -91 2034 -91 
Q 1250 -91 836 529 
Q 422 1150 422 2328 
Q 422 3509 836 4129 
Q 1250 4750 2034 4750 
z
" transform="scale(0.015625)"/>
       </defs>
       <use xlink:href="#DejaVuSans-30"/>
      </g>
     </g>
    </g>
    <g id="xtick_2">
     <g id="line2d_2">
      <g>
       <use xlink:href="#m95b0e91be1" x="117.12" y="307.584" style="stroke: #000000; stroke-width: 0.8"/>
      </g>
     </g>
     <g id="text_2">
      <!-- 2 -->
      <g transform="translate(113.93875 322.182437) scale(0.1 -0.1)">
       <defs>
        <path id="DejaVuSans-32" d="M 1228 531 
L 3431 531 
L 3431 0 
L 469 0 
L 469 531 
Q 828 903 1448 1529 
Q 2069 2156 2228 2338 
Q 2531 2678 2651 2914 
Q 2772 3150 2772 3378 
Q 2772 3750 2511 3984 
Q 2250 4219 1831 4219 
Q 1534 4219 1204 4116 
Q 875 4013 500 3803 
L 500 4441 
Q 881 4594 1212 4672 
Q 1544 4750 1819 4750 
Q 2544 4750 2975 4387 
Q 3406 4025 3406 3419 
Q 3406 3131 3298 2873 
Q 3191 2616 2906 2266 
Q 2828 2175 2409 1742 
Q 1991 1309 1228 531 
z
" transform="scale(0.015625)"/>
       </defs>
       <use xlink:href="#DejaVuSans-32"/>
      </g>
     </g>
    </g>
    <g id="xtick_3">
     <g id="line2d_3">
      <g>
       <use xlink:href="#m95b0e91be1" x="160.407273" y="307.584" style="stroke: #000000; stroke-width: 0.8"/>
      </g>
     </g>
     <g id="text_3">
      <!-- 4 -->
      <g transform="translate(157.226023 322.182437) scale(0.1 -0.1)">
       <defs>
        <path id="DejaVuSans-34" d="M 2419 4116 
L 825 1625 
L 2419 1625 
L 2419 4116 
z
M 2253 4666 
L 3047 4666 
L 3047 1625 
L 3713 1625 
L 3713 1100 
L 3047 1100 
L 3047 0 
L 2419 0 
L 2419 1100 
L 313 1100 
L 313 1709 
L 2253 4666 
z
" transform="scale(0.015625)"/>
       </defs>
       <use xlink:href="#DejaVuSans-34"/>
      </g>
     </g>
    </g>
    <g id="xtick_4">
     <g id="line2d_4">
      <g>
       <use xlink:href="#m95b0e91be1" x="203.694545" y="307.584" style="stroke: #000000; stroke-width: 0.8"/>
      </g>
     </g>
     <g id="text_4">
      <!-- 6 -->
      <g transform="translate(200.513295 322.182437) scale(0.1 -0.1)">
       <defs>
        <path id="DejaVuSans-36" d="M 2113 2584 
Q 1688 2584 1439 2293 
Q 1191 2003 1191 1497 
Q 1191 994 1439 701 
Q 1688 409 2113 409 
Q 2538 409 2786 701 
Q 3034 994 3034 1497 
Q 3034 2003 2786 2293 
Q 2538 2584 2113 2584 
z
M 3366 4563 
L 3366 3988 
Q 3128 4100 2886 4159 
Q 2644 4219 2406 4219 
Q 1781 4219 1451 3797 
Q 1122 3375 1075 2522 
Q 1259 2794 1537 2939 
Q 1816 3084 2150 3084 
Q 2853 3084 3261 2657 
Q 3669 2231 3669 1497 
Q 3669 778 3244 343 
Q 2819 -91 2113 -91 
Q 1303 -91 875 529 
Q 447 1150 447 2328 
Q 447 3434 972 4092 
Q 1497 4750 2381 4750 
Q 2619 4750 2861 4703 
Q 3103 4656 3366 4563 
z
" transform="scale(0.015625)"/>
       </defs>
       <use xlink:href="#DejaVuSans-36"/>
      </g>
     </g>
    </g>
    <g id="xtick_5">
     <g id="line2d_5">
      <g>
       <use xlink:href="#m95b0e91be1" x="246.981818" y="307.584" style="stroke: #000000; stroke-width: 0.8"/>
      </g>
     </g>
     <g id="text_5">
      <!-- 8 -->
      <g transform="translate(243.800568 322.182437) scale(0.1 -0.1)">
       <defs>
        <path id="DejaVuSans-38" d="M 2034 2216 
Q 1584 2216 1326 1975 
Q 1069 1734 1069 1313 
Q 1069 891 1326 650 
Q 1584 409 2034 409 
Q 2484 409 2743 651 
Q 3003 894 3003 1313 
Q 3003 1734 2745 1975 
Q 2488 2216 2034 2216 
z
M 1403 2484 
Q 997 2584 770 2862 
Q 544 3141 544 3541 
Q 544 4100 942 4425 
Q 1341 4750 2034 4750 
Q 2731 4750 3128 4425 
Q 3525 4100 3525 3541 
Q 3525 3141 3298 2862 
Q 3072 2584 2669 2484 
Q 3125 2378 3379 2068 
Q 3634 1759 3634 1313 
Q 3634 634 3220 271 
Q 2806 -91 2034 -91 
Q 1263 -91 848 271 
Q 434 634 434 1313 
Q 434 1759 690 2068 
Q 947 2378 1403 2484 
z
M 1172 3481 
Q 1172 3119 1398 2916 
Q 1625 2713 2034 2713 
Q 2441 2713 2670 2916 
Q 2900 3119 2900 3481 
Q 2900 3844 2670 4047 
Q 2441 4250 2034 4250 
Q 1625 4250 1398 4047 
Q 1172 3844 1172 3481 
z
" transform="scale(0.015625)"/>
       </defs>
       <use xlink:href="#DejaVuSans-38"/>
      </g>
     </g>
    </g>
    <g id="xtick_6">
     <g id="line2d_6">
      <g>
       <use xlink:href="#m95b0e91be1" x="290.269091" y="307.584" style="stroke: #000000; stroke-width: 0.8"/>
      </g>
     </g>
     <g id="text_6">
      <!-- 10 -->
      <g transform="translate(283.906591 322.182437) scale(0.1 -0.1)">
       <defs>
        <path id="DejaVuSans-31" d="M 794 531 
L 1825 531 
L 1825 4091 
L 703 3866 
L 703 4441 
L 1819 4666 
L 2450 4666 
L 2450 531 
L 3481 531 
L 3481 0 
L 794 0 
L 794 531 
z
" transform="scale(0.015625)"/>
       </defs>
       <use xlink:href="#DejaVuSans-31"/>
       <use xlink:href="#DejaVuSans-30" x="63.623047"/>
      </g>
     </g>
    </g>
    <g id="xtick_7">
     <g id="line2d_7">
      <g>
       <use xlink:href="#m95b0e91be1" x="333.556364" y="307.584" style="stroke: #000000; stroke-width: 0.8"/>
      </g>
     </g>
     <g id="text_7">
      <!-- 12 -->
      <g transform="translate(327.193864 322.182437) scale(0.1 -0.1)">
       <use xlink:href="#DejaVuSans-31"/>
       <use xlink:href="#DejaVuSans-32" x="63.623047"/>
      </g>
     </g>
    </g>
    <g id="xtick_8">
     <g id="line2d_8">
      <g>
       <use xlink:href="#m95b0e91be1" x="376.843636" y="307.584" style="stroke: #000000; stroke-width: 0.8"/>
      </g>
     </g>
     <g id="text_8">
      <!-- 14 -->
      <g transform="translate(370.481136 322.182437) scale(0.1 -0.1)">
       <use xlink:href="#DejaVuSans-31"/>
       <use xlink:href="#DejaVuSans-34" x="63.623047"/>
      </g>
     </g>
    </g>
    <g id="text_9">
     <!-- $t$ -->
     <g transform="translate(234.16 335.860562) scale(0.1 -0.1)">
      <defs>
       <path id="DejaVuSans-Oblique-74" d="M 2706 3500 
L 2619 3053 
L 1472 3053 
L 1100 1153 
Q 1081 1047 1072 975 
Q 1063 903 1063 863 
Q 1063 663 1183 572 
Q 1303 481 1569 481 
L 2150 481 
L 2053 0 
L 1503 0 
Q 991 0 739 200 
Q 488 400 488 806 
Q 488 878 497 964 
Q 506 1050 525 1153 
L 897 3053 
L 409 3053 
L 500 3500 
L 978 3500 
L 1172 4494 
L 1747 4494 
L 1556 3500 
L 2706 3500 
z
" transform="scale(0.015625)"/>
      </defs>
      <use xlink:href="#DejaVuSans-Oblique-74" transform="translate(0 0.78125)"/>
     </g>
    </g>
   </g>
   <g id="matplotlib.axis_2">
    <g id="ytick_1">
     <g id="line2d_9">
      <defs>
       <path id="m5f00e5f05b" d="M 0 0 
L -3.5 0 
" style="stroke: #000000; stroke-width: 0.8"/>
      </defs>
      <g>
       <use xlink:href="#m5f00e5f05b" x="57.6" y="307.584" style="stroke: #000000; stroke-width: 0.8"/>
      </g>
     </g>
     <g id="text_10">
      <!-- 0 -->
      <g transform="translate(44.2375 311.383219) scale(0.1 -0.1)">
       <use xlink:href="#DejaVuSans-30"/>
      </g>
     </g>
    </g>
    <g id="ytick_2">
     <g id="line2d_10">
      <g>
       <use xlink:href="#m5f00e5f05b" x="57.6" y="276.135657" style="stroke: #000000; stroke-width: 0.8"/>
      </g>
     </g>
     <g id="text_11">
      <!-- 2 -->
      <g transform="translate(44.2375 279.934876) scale(0.1 -0.1)">
       <use xlink:href="#DejaVuSans-32"/>
      </g>
     </g>
    </g>
    <g id="ytick_3">
     <g id="line2d_11">
      <g>
       <use xlink:href="#m5f00e5f05b" x="57.6" y="244.687314" style="stroke: #000000; stroke-width: 0.8"/>
      </g>
     </g>
     <g id="text_12">
      <!-- 4 -->
      <g transform="translate(44.2375 248.486533) scale(0.1 -0.1)">
       <use xlink:href="#DejaVuSans-34"/>
      </g>
     </g>
    </g>
    <g id="ytick_4">
     <g id="line2d_12">
      <g>
       <use xlink:href="#m5f00e5f05b" x="57.6" y="213.238971" style="stroke: #000000; stroke-width: 0.8"/>
      </g>
     </g>
     <g id="text_13">
      <!-- 6 -->
      <g transform="translate(44.2375 217.03819) scale(0.1 -0.1)">
       <use xlink:href="#DejaVuSans-36"/>
      </g>
     </g>
    </g>
    <g id="ytick_5">
     <g id="line2d_13">
      <g>
       <use xlink:href="#m5f00e5f05b" x="57.6" y="181.790628" style="stroke: #000000; stroke-width: 0.8"/>
      </g>
     </g>
     <g id="text_14">
      <!-- 8 -->
      <g transform="translate(44.2375 185.589847) scale(0.1 -0.1)">
       <use xlink:href="#DejaVuSans-38"/>
      </g>
     </g>
    </g>
    <g id="ytick_6">
     <g id="line2d_14">
      <g>
       <use xlink:href="#m5f00e5f05b" x="57.6" y="150.342285" style="stroke: #000000; stroke-width: 0.8"/>
      </g>
     </g>
     <g id="text_15">
      <!-- 10 -->
      <g transform="translate(37.875 154.141504) scale(0.1 -0.1)">
       <use xlink:href="#DejaVuSans-31"/>
       <use xlink:href="#DejaVuSans-30" x="63.623047"/>
      </g>
     </g>
    </g>
    <g id="ytick_7">
     <g id="line2d_15">
      <g>
       <use xlink:href="#m5f00e5f05b" x="57.6" y="118.893943" style="stroke: #000000; stroke-width: 0.8"/>
      </g>
     </g>
     <g id="text_16">
      <!-- 12 -->
      <g transform="translate(37.875 122.693161) scale(0.1 -0.1)">
       <use xlink:href="#DejaVuSans-31"/>
       <use xlink:href="#DejaVuSans-32" x="63.623047"/>
      </g>
     </g>
    </g>
    <g id="ytick_8">
     <g id="line2d_16">
      <g>
       <use xlink:href="#m5f00e5f05b" x="57.6" y="87.4456" style="stroke: #000000; stroke-width: 0.8"/>
      </g>
     </g>
     <g id="text_17">
      <!-- 14 -->
      <g transform="translate(37.875 91.244818) scale(0.1 -0.1)">
       <use xlink:href="#DejaVuSans-31"/>
       <use xlink:href="#DejaVuSans-34" x="63.623047"/>
      </g>
     </g>
    </g>
    <g id="ytick_9">
     <g id="line2d_17">
      <g>
       <use xlink:href="#m5f00e5f05b" x="57.6" y="55.997257" style="stroke: #000000; stroke-width: 0.8"/>
      </g>
     </g>
     <g id="text_18">
      <!-- 16 -->
      <g transform="translate(37.875 59.796476) scale(0.1 -0.1)">
       <use xlink:href="#DejaVuSans-31"/>
       <use xlink:href="#DejaVuSans-36" x="63.623047"/>
      </g>
     </g>
    </g>
    <g id="text_19">
     <!-- $x$ -->
     <g transform="translate(31.795313 177.528) rotate(-90) scale(0.1 -0.1)">
      <defs>
       <path id="DejaVuSans-Oblique-78" d="M 3841 3500 
L 2234 1784 
L 3219 0 
L 2559 0 
L 1819 1388 
L 531 0 
L -166 0 
L 1556 1844 
L 641 3500 
L 1300 3500 
L 1972 2234 
L 3144 3500 
L 3841 3500 
z
" transform="scale(0.015625)"/>
      </defs>
      <use xlink:href="#DejaVuSans-Oblique-78" transform="translate(0 0.3125)"/>
     </g>
    </g>
   </g>
   <g id="line2d_18">
    <path d="M 73.832727 228.963143 
L 77.112066 216.409685 
L 80.391405 205.599233 
L 83.670744 196.120816 
L 86.950083 187.679707 
L 90.229421 180.041617 
L 93.50876 173.032694 
L 96.788099 166.540122 
L 100.067438 160.51259 
L 103.346777 154.906613 
L 106.626116 149.678554 
L 109.905455 144.789153 
L 113.184793 140.203527 
L 116.464132 135.891175 
L 119.743471 131.825968 
L 123.02281 127.986161 
L 126.302149 124.354368 
L 129.581488 120.913631 
L 132.860826 117.650393 
L 136.140165 114.55467 
L 139.419504 111.616881 
L 142.698843 108.827842 
L 145.978182 106.178768 
L 149.257521 103.661276 
L 152.53686 101.267381 
L 155.816198 98.989496 
L 159.095537 96.820435 
L 162.374876 94.753413 
L 165.654215 92.782041 
L 168.933554 90.900332 
L 172.212893 89.102697 
L 175.492231 87.383947 
L 178.77157 85.739293 
L 182.050909 84.164576 
L 185.330248 82.657072 
L 188.609587 81.214289 
L 191.888926 79.833764 
L 195.168264 78.51308 
L 198.447603 77.24986 
L 201.726942 76.041772 
L 205.006281 74.886529 
L 208.28562 73.781885 
L 211.564959 72.725641 
L 214.844298 71.715638 
L 218.123636 70.749763 
L 221.402975 69.825945 
L 224.682314 68.942159 
L 227.961653 68.096421 
L 231.240992 67.286793 
L 234.520331 66.511377 
L 237.799669 65.768324 
L 241.079008 65.055823 
L 244.358347 64.372111 
L 247.637686 63.715466 
L 250.917025 63.084211 
L 254.196364 62.476712 
L 257.475702 61.891971 
L 260.755041 61.329689 
L 264.03438 60.789272 
L 267.313719 60.270125 
L 270.593058 59.771653 
L 273.872397 59.293259 
L 277.151736 58.834347 
L 280.431074 58.394318 
L 283.710413 57.972573 
L 286.989752 57.56851 
L 290.269091 57.181529 
L 293.54843 56.811027 
L 296.827769 56.4564 
L 300.107107 56.117044 
L 303.386446 55.792354 
L 306.665785 55.481723 
L 309.945124 55.184542 
L 313.224463 54.900205 
L 316.503802 54.628101 
L 319.78314 54.367619 
L 323.062479 54.118147 
L 326.341818 53.879074 
L 329.621157 53.649785 
L 332.900496 53.429666 
L 336.179835 53.2181 
L 339.459174 53.014472 
L 342.738512 52.818163 
L 346.017851 52.628555 
L 349.29719 52.445027 
L 352.576529 52.267073 
L 355.855868 52.095734 
L 359.135207 51.931204 
L 362.414545 51.773222 
L 365.693884 51.621535 
L 368.973223 51.475893 
L 372.252562 51.336059 
L 375.531901 51.2018 
L 378.81124 51.072891 
L 382.090579 50.949115 
L 385.369917 50.830262 
L 388.649256 50.71613 
L 391.928595 50.606525 
L 395.207934 50.501258 
L 398.487273 50.40015 
" clip-path="url(#pd9fa5f74eb)" style="fill: none; stroke: #1f77b4; stroke-width: 1.5; stroke-linecap: square"/>
   </g>
   <g id="line2d_19">
    <path d="M 73.832727 228.963143 
L 77.112066 222.909511 
L 80.391405 217.394018 
L 83.670744 212.334072 
L 86.950083 207.665662 
L 90.229421 203.333941 
L 93.50876 199.293224 
L 96.788099 195.506995 
L 100.067438 191.947897 
L 103.346777 188.594804 
L 106.626116 185.428014 
L 109.905455 182.434452 
L 113.184793 179.60198 
L 116.464132 176.919172 
L 119.743471 174.375306 
L 123.02281 171.960373 
L 126.302149 169.665068 
L 129.581488 167.480797 
L 132.860826 165.399674 
L 136.140165 163.41452 
L 139.419504 161.518865 
L 142.698843 159.706947 
L 145.978182 157.973712 
L 149.257521 156.314688 
L 152.53686 154.726117 
L 155.816198 153.205051 
L 159.095537 151.748639 
L 162.374876 150.354108 
L 165.654215 149.018757 
L 168.933554 147.73996 
L 172.212893 146.515168 
L 175.492231 145.341904 
L 178.77157 144.217769 
L 182.050909 143.140436 
L 185.330248 142.107654 
L 188.609587 141.117247 
L 191.888926 140.167114 
L 195.168264 139.255229 
L 198.447603 138.379639 
L 201.726942 137.538469 
L 205.006281 136.729917 
L 208.28562 135.952255 
L 211.564959 135.203831 
L 214.844298 134.483068 
L 218.123636 133.788624 
L 221.402975 133.119769 
L 224.682314 132.475768 
L 227.961653 131.855884 
L 231.240992 131.25939 
L 234.520331 130.68556 
L 237.799669 130.133678 
L 241.079008 129.603032 
L 244.358347 129.092916 
L 247.637686 128.602633 
L 250.917025 128.131487 
L 254.196364 127.678794 
L 257.475702 127.243871 
L 260.755041 126.826044 
L 264.03438 126.424644 
L 267.313719 126.039008 
L 270.593058 125.668481 
L 273.872397 125.312411 
L 277.151736 124.970153 
L 280.431074 124.641071 
L 283.710413 124.324532 
L 286.989752 124.019909 
L 290.269091 123.726582 
L 293.54843 123.443939 
L 296.827769 123.17137 
L 300.107107 122.908274 
L 303.386446 122.654055 
L 306.665785 122.408125 
L 309.945124 122.16995 
L 313.224463 121.939944 
L 316.503802 121.718166 
L 319.78314 121.504372 
L 323.062479 121.298324 
L 326.341818 121.099786 
L 329.621157 120.908525 
L 332.900496 120.72431 
L 336.179835 120.546912 
L 339.459174 120.376108 
L 342.738512 120.211674 
L 346.017851 120.053393 
L 349.29719 119.901046 
L 352.576529 119.75442 
L 355.855868 119.613305 
L 359.135207 119.477492 
L 362.414545 119.346776 
L 365.693884 119.220954 
L 368.973223 119.099826 
L 372.252562 118.983197 
L 375.531901 118.870871 
L 378.81124 118.762658 
L 382.090579 118.658369 
L 385.369917 118.557818 
L 388.649256 118.460823 
L 391.928595 118.367203 
L 395.207934 118.276781 
L 398.487273 118.189383 
" clip-path="url(#pd9fa5f74eb)" style="fill: none; stroke: #ff7f0e; stroke-width: 1.5; stroke-linecap: square"/>
   </g>
   <g id="line2d_20">
    <path d="M 73.832727 228.963143 
L 77.112066 226.342378 
L 80.391405 223.869264 
L 83.670744 221.53081 
L 86.950083 219.316047 
L 90.229421 217.214977 
L 93.50876 215.218578 
L 96.788099 213.318798 
L 100.067438 211.508562 
L 103.346777 209.781764 
L 106.626116 208.133178 
L 109.905455 206.556279 
L 113.184793 205.046797 
L 116.464132 203.60171 
L 119.743471 202.218086 
L 123.02281 200.893082 
L 126.302149 199.623941 
L 129.581488 198.407996 
L 132.860826 197.242667 
L 136.140165 196.125462 
L 139.419504 195.053978 
L 142.698843 194.025901 
L 145.978182 193.039003 
L 149.257521 192.091145 
L 152.53686 191.180278 
L 155.816198 190.304438 
L 159.095537 189.461751 
L 162.374876 188.650432 
L 165.654215 187.868782 
L 168.933554 187.115191 
L 172.212893 186.388139 
L 175.492231 185.686195 
L 178.77157 185.008661 
L 182.050909 184.355107 
L 185.330248 183.724792 
L 188.609587 183.116983 
L 191.888926 182.530961 
L 195.168264 181.966016 
L 198.447603 181.421449 
L 201.726942 180.896573 
L 205.006281 180.390711 
L 208.28562 179.903196 
L 211.564959 179.433372 
L 214.844298 178.980596 
L 218.123636 178.544233 
L 221.402975 178.12366 
L 224.682314 177.718265 
L 227.961653 177.327447 
L 231.240992 176.950615 
L 234.520331 176.587188 
L 237.799669 176.236599 
L 241.079008 175.898288 
L 244.358347 175.571709 
L 247.637686 175.256324 
L 250.917025 174.951609 
L 254.196364 174.657047 
L 257.475702 174.372134 
L 260.755041 174.096378 
L 264.03438 173.829295 
L 267.313719 173.570499 
L 270.593058 173.319891 
L 273.872397 173.077308 
L 277.151736 172.842574 
L 280.431074 172.615514 
L 283.710413 172.395952 
L 286.989752 172.183713 
L 290.269091 171.97862 
L 293.54843 171.780497 
L 296.827769 171.589167 
L 300.107107 171.404451 
L 303.386446 171.226171 
L 306.665785 171.05415 
L 309.945124 170.888209 
L 313.224463 170.728167 
L 316.503802 170.573846 
L 319.78314 170.425065 
L 323.062479 170.281643 
L 326.341818 170.143401 
L 329.621157 170.010155 
L 332.900496 169.881725 
L 336.179835 169.757928 
L 339.459174 169.638582 
L 342.738512 169.523503 
L 346.017851 169.412508 
L 349.29719 169.305413 
L 352.576529 169.202034 
L 355.855868 169.102185 
L 359.135207 169.005683 
L 362.414545 168.91234 
L 365.693884 168.821971 
L 368.973223 168.734389 
L 372.252562 168.649409 
L 375.531901 168.566841 
L 378.81124 168.4865 
L 382.090579 168.408195 
L 385.369917 168.331875 
L 388.649256 168.258015 
L 391.928595 168.186604 
L 395.207934 168.117559 
L 398.487273 168.050802 
" clip-path="url(#pd9fa5f74eb)" style="fill: none; stroke: #2ca02c; stroke-width: 1.5; stroke-linecap: square"/>
   </g>
   <g id="line2d_21">
    <path d="M 73.832727 228.963143 
L 77.112066 228.112145 
L 80.391405 227.292823 
L 83.670744 226.503689 
L 86.950083 225.74341 
L 90.229421 225.010711 
L 93.50876 224.304379 
L 96.788099 223.623261 
L 100.067438 222.966262 
L 103.346777 222.33235 
L 106.626116 221.72055 
L 109.905455 221.129951 
L 113.184793 220.559699 
L 116.464132 220.008674 
L 119.743471 219.475446 
L 123.02281 218.959517 
L 126.302149 218.460435 
L 129.581488 217.977752 
L 132.860826 217.511023 
L 136.140165 217.059806 
L 139.419504 216.623663 
L 142.698843 216.202159 
L 145.978182 215.794862 
L 149.257521 215.401344 
L 152.53686 215.021179 
L 155.816198 214.653945 
L 159.095537 214.299223 
L 162.374876 213.956599 
L 165.654215 213.62566 
L 168.933554 213.305997 
L 172.212893 212.997205 
L 175.492231 212.698881 
L 178.77157 212.410626 
L 182.050909 212.132045 
L 185.330248 211.862745 
L 188.609587 211.602336 
L 191.888926 211.350434 
L 195.168264 211.106655 
L 198.447603 210.87062 
L 201.726942 210.641953 
L 205.006281 210.420281 
L 208.28562 210.205235 
L 211.564959 209.996448 
L 214.844298 209.793557 
L 218.123636 209.596203 
L 221.402975 209.404029 
L 224.682314 209.216773 
L 227.961653 209.034856 
L 231.240992 208.858294 
L 234.520331 208.686974 
L 237.799669 208.520781 
L 241.079008 208.359604 
L 244.358347 208.203327 
L 247.637686 208.05184 
L 250.917025 207.905029 
L 254.196364 207.762781 
L 257.475702 207.624985 
L 260.755041 207.491528 
L 264.03438 207.362298 
L 267.313719 207.237185 
L 270.593058 207.116075 
L 273.872397 206.998859 
L 277.151736 206.885425 
L 280.431074 206.775662 
L 283.710413 206.66946 
L 286.989752 206.566708 
L 290.269091 206.467296 
L 293.54843 206.371113 
L 296.827769 206.278051 
L 300.107107 206.188 
L 303.386446 206.100849 
L 306.665785 206.01649 
L 309.945124 205.934815 
L 313.224463 205.855713 
L 316.503802 205.779076 
L 319.78314 205.704797 
L 323.062479 205.632767 
L 326.341818 205.562877 
L 329.621157 205.495021 
L 332.900496 205.42909 
L 336.179835 205.364977 
L 339.459174 205.302575 
L 342.738512 205.241778 
L 346.017851 205.182477 
L 349.29719 205.12465 
L 352.576529 205.068537 
L 355.855868 205.01412 
L 359.135207 204.961347 
L 362.414545 204.91017 
L 365.693884 204.860541 
L 368.973223 204.812412 
L 372.252562 204.765738 
L 375.531901 204.720474 
L 378.81124 204.676578 
L 382.090579 204.634007 
L 385.369917 204.59272 
L 388.649256 204.552677 
L 391.928595 204.513841 
L 395.207934 204.476174 
L 398.487273 204.439639 
" clip-path="url(#pd9fa5f74eb)" style="fill: none; stroke: #d62728; stroke-width: 1.5; stroke-linecap: square"/>
   </g>
   <g id="patch_3">
    <path d="M 57.6 307.584 
L 57.6 41.472 
" style="fill: none; stroke: #000000; stroke-width: 0.8; stroke-linejoin: miter; stroke-linecap: square"/>
   </g>
   <g id="patch_4">
    <path d="M 414.72 307.584 
L 414.72 41.472 
" style="fill: none; stroke: #000000; stroke-width: 0.8; stroke-linejoin: miter; stroke-linecap: square"/>
   </g>
   <g id="patch_5">
    <path d="M 57.6 307.584 
L 414.72 307.584 
" style="fill: none; stroke: #000000; stroke-width: 0.8; stroke-linejoin: miter; stroke-linecap: square"/>
   </g>
   <g id="patch_6">
    <path d="M 57.6 41.472 
L 414.72 41.472 
" style="fill: none; stroke: #000000; stroke-width: 0.8; stroke-linejoin: miter; stroke-linecap: square"/>
   </g>
   <g id="text_20">
    <!-- Řešení diferenciální rovnice -->
    <g transform="translate(153.569063 35.472) scale(0.12 -0.12)">
     <defs>
      <path id="DejaVuSans-158" d="M 2841 2188 
Q 3044 2119 3236 1894 
Q 3428 1669 3622 1275 
L 4263 0 
L 3584 0 
L 2988 1197 
Q 2756 1666 2539 1819 
Q 2322 1972 1947 1972 
L 1259 1972 
L 1259 0 
L 628 0 
L 628 4666 
L 2053 4666 
Q 2853 4666 3247 4331 
Q 3641 3997 3641 3322 
Q 3641 2881 3436 2590 
Q 3231 2300 2841 2188 
z
M 1259 4147 
L 1259 2491 
L 2053 2491 
Q 2509 2491 2742 2702 
Q 2975 2913 2975 3322 
Q 2975 3731 2742 3939 
Q 2509 4147 2053 4147 
L 1259 4147 
z
M 1697 5066 
L 1038 5897 
L 1472 5897 
L 1991 5341 
L 2509 5897 
L 2944 5897 
L 2284 5066 
L 1697 5066 
z
" transform="scale(0.015625)"/>
      <path id="DejaVuSans-65" d="M 3597 1894 
L 3597 1613 
L 953 1613 
Q 991 1019 1311 708 
Q 1631 397 2203 397 
Q 2534 397 2845 478 
Q 3156 559 3463 722 
L 3463 178 
Q 3153 47 2828 -22 
Q 2503 -91 2169 -91 
Q 1331 -91 842 396 
Q 353 884 353 1716 
Q 353 2575 817 3079 
Q 1281 3584 2069 3584 
Q 2775 3584 3186 3129 
Q 3597 2675 3597 1894 
z
M 3022 2063 
Q 3016 2534 2758 2815 
Q 2500 3097 2075 3097 
Q 1594 3097 1305 2825 
Q 1016 2553 972 2059 
L 3022 2063 
z
" transform="scale(0.015625)"/>
      <path id="DejaVuSans-161" d="M 2834 3397 
L 2834 2853 
Q 2591 2978 2328 3040 
Q 2066 3103 1784 3103 
Q 1356 3103 1142 2972 
Q 928 2841 928 2578 
Q 928 2378 1081 2264 
Q 1234 2150 1697 2047 
L 1894 2003 
Q 2506 1872 2764 1633 
Q 3022 1394 3022 966 
Q 3022 478 2636 193 
Q 2250 -91 1575 -91 
Q 1294 -91 989 -36 
Q 684 19 347 128 
L 347 722 
Q 666 556 975 473 
Q 1284 391 1588 391 
Q 1994 391 2212 530 
Q 2431 669 2431 922 
Q 2431 1156 2273 1281 
Q 2116 1406 1581 1522 
L 1381 1569 
Q 847 1681 609 1914 
Q 372 2147 372 2553 
Q 372 3047 722 3315 
Q 1072 3584 1716 3584 
Q 2034 3584 2315 3537 
Q 2597 3491 2834 3397 
z
M 1503 3944 
L 738 5119 
L 1172 5119 
L 1734 4353 
L 2297 5119 
L 2731 5119 
L 1966 3944 
L 1503 3944 
z
M 1722 3584 
L 1722 3584 
z
" transform="scale(0.015625)"/>
      <path id="DejaVuSans-6e" d="M 3513 2113 
L 3513 0 
L 2938 0 
L 2938 2094 
Q 2938 2591 2744 2837 
Q 2550 3084 2163 3084 
Q 1697 3084 1428 2787 
Q 1159 2491 1159 1978 
L 1159 0 
L 581 0 
L 581 3500 
L 1159 3500 
L 1159 2956 
Q 1366 3272 1645 3428 
Q 1925 3584 2291 3584 
Q 2894 3584 3203 3211 
Q 3513 2838 3513 2113 
z
" transform="scale(0.015625)"/>
      <path id="DejaVuSans-ed" d="M 1325 5119 
L 1947 5119 
L 928 3944 
L 450 3944 
L 1325 5119 
z
M 603 3500 
L 1178 3500 
L 1178 0 
L 603 0 
L 603 3500 
z
M 891 3584 
L 891 3584 
z
" transform="scale(0.015625)"/>
      <path id="DejaVuSans-20" transform="scale(0.015625)"/>
      <path id="DejaVuSans-64" d="M 2906 2969 
L 2906 4863 
L 3481 4863 
L 3481 0 
L 2906 0 
L 2906 525 
Q 2725 213 2448 61 
Q 2172 -91 1784 -91 
Q 1150 -91 751 415 
Q 353 922 353 1747 
Q 353 2572 751 3078 
Q 1150 3584 1784 3584 
Q 2172 3584 2448 3432 
Q 2725 3281 2906 2969 
z
M 947 1747 
Q 947 1113 1208 752 
Q 1469 391 1925 391 
Q 2381 391 2643 752 
Q 2906 1113 2906 1747 
Q 2906 2381 2643 2742 
Q 2381 3103 1925 3103 
Q 1469 3103 1208 2742 
Q 947 2381 947 1747 
z
" transform="scale(0.015625)"/>
      <path id="DejaVuSans-69" d="M 603 3500 
L 1178 3500 
L 1178 0 
L 603 0 
L 603 3500 
z
M 603 4863 
L 1178 4863 
L 1178 4134 
L 603 4134 
L 603 4863 
z
" transform="scale(0.015625)"/>
      <path id="DejaVuSans-66" d="M 2375 4863 
L 2375 4384 
L 1825 4384 
Q 1516 4384 1395 4259 
Q 1275 4134 1275 3809 
L 1275 3500 
L 2222 3500 
L 2222 3053 
L 1275 3053 
L 1275 0 
L 697 0 
L 697 3053 
L 147 3053 
L 147 3500 
L 697 3500 
L 697 3744 
Q 697 4328 969 4595 
Q 1241 4863 1831 4863 
L 2375 4863 
z
" transform="scale(0.015625)"/>
      <path id="DejaVuSans-72" d="M 2631 2963 
Q 2534 3019 2420 3045 
Q 2306 3072 2169 3072 
Q 1681 3072 1420 2755 
Q 1159 2438 1159 1844 
L 1159 0 
L 581 0 
L 581 3500 
L 1159 3500 
L 1159 2956 
Q 1341 3275 1631 3429 
Q 1922 3584 2338 3584 
Q 2397 3584 2469 3576 
Q 2541 3569 2628 3553 
L 2631 2963 
z
" transform="scale(0.015625)"/>
      <path id="DejaVuSans-63" d="M 3122 3366 
L 3122 2828 
Q 2878 2963 2633 3030 
Q 2388 3097 2138 3097 
Q 1578 3097 1268 2742 
Q 959 2388 959 1747 
Q 959 1106 1268 751 
Q 1578 397 2138 397 
Q 2388 397 2633 464 
Q 2878 531 3122 666 
L 3122 134 
Q 2881 22 2623 -34 
Q 2366 -91 2075 -91 
Q 1284 -91 818 406 
Q 353 903 353 1747 
Q 353 2603 823 3093 
Q 1294 3584 2113 3584 
Q 2378 3584 2631 3529 
Q 2884 3475 3122 3366 
z
" transform="scale(0.015625)"/>
      <path id="DejaVuSans-e1" d="M 2194 1759 
Q 1497 1759 1228 1600 
Q 959 1441 959 1056 
Q 959 750 1161 570 
Q 1363 391 1709 391 
Q 2188 391 2477 730 
Q 2766 1069 2766 1631 
L 2766 1759 
L 2194 1759 
z
M 3341 1997 
L 3341 0 
L 2766 0 
L 2766 531 
Q 2569 213 2275 61 
Q 1981 -91 1556 -91 
Q 1019 -91 701 211 
Q 384 513 384 1019 
Q 384 1609 779 1909 
Q 1175 2209 1959 2209 
L 2766 2209 
L 2766 2266 
Q 2766 2663 2505 2880 
Q 2244 3097 1772 3097 
Q 1472 3097 1187 3025 
Q 903 2953 641 2809 
L 641 3341 
Q 956 3463 1253 3523 
Q 1550 3584 1831 3584 
Q 2591 3584 2966 3190 
Q 3341 2797 3341 1997 
z
M 2291 5119 
L 2913 5119 
L 1894 3944 
L 1416 3944 
L 2291 5119 
z
" transform="scale(0.015625)"/>
      <path id="DejaVuSans-6c" d="M 603 4863 
L 1178 4863 
L 1178 0 
L 603 0 
L 603 4863 
z
" transform="scale(0.015625)"/>
      <path id="DejaVuSans-6f" d="M 1959 3097 
Q 1497 3097 1228 2736 
Q 959 2375 959 1747 
Q 959 1119 1226 758 
Q 1494 397 1959 397 
Q 2419 397 2687 759 
Q 2956 1122 2956 1747 
Q 2956 2369 2687 2733 
Q 2419 3097 1959 3097 
z
M 1959 3584 
Q 2709 3584 3137 3096 
Q 3566 2609 3566 1747 
Q 3566 888 3137 398 
Q 2709 -91 1959 -91 
Q 1206 -91 779 398 
Q 353 888 353 1747 
Q 353 2609 779 3096 
Q 1206 3584 1959 3584 
z
" transform="scale(0.015625)"/>
      <path id="DejaVuSans-76" d="M 191 3500 
L 800 3500 
L 1894 563 
L 2988 3500 
L 3597 3500 
L 2284 0 
L 1503 0 
L 191 3500 
z
" transform="scale(0.015625)"/>
     </defs>
     <use xlink:href="#DejaVuSans-158"/>
     <use xlink:href="#DejaVuSans-65" x="64.982422"/>
     <use xlink:href="#DejaVuSans-161" x="126.505859"/>
     <use xlink:href="#DejaVuSans-65" x="178.605469"/>
     <use xlink:href="#DejaVuSans-6e" x="240.128906"/>
     <use xlink:href="#DejaVuSans-ed" x="303.507812"/>
     <use xlink:href="#DejaVuSans-20" x="331.291016"/>
     <use xlink:href="#DejaVuSans-64" x="363.078125"/>
     <use xlink:href="#DejaVuSans-69" x="426.554688"/>
     <use xlink:href="#DejaVuSans-66" x="454.337891"/>
     <use xlink:href="#DejaVuSans-65" x="489.542969"/>
     <use xlink:href="#DejaVuSans-72" x="551.066406"/>
     <use xlink:href="#DejaVuSans-65" x="589.929688"/>
     <use xlink:href="#DejaVuSans-6e" x="651.453125"/>
     <use xlink:href="#DejaVuSans-63" x="714.832031"/>
     <use xlink:href="#DejaVuSans-69" x="769.8125"/>
     <use xlink:href="#DejaVuSans-e1" x="797.595703"/>
     <use xlink:href="#DejaVuSans-6c" x="858.875"/>
     <use xlink:href="#DejaVuSans-6e" x="886.658203"/>
     <use xlink:href="#DejaVuSans-ed" x="950.037109"/>
     <use xlink:href="#DejaVuSans-20" x="977.820312"/>
     <use xlink:href="#DejaVuSans-72" x="1009.607422"/>
     <use xlink:href="#DejaVuSans-6f" x="1048.470703"/>
     <use xlink:href="#DejaVuSans-76" x="1109.652344"/>
     <use xlink:href="#DejaVuSans-6e" x="1168.832031"/>
     <use xlink:href="#DejaVuSans-69" x="1232.210938"/>
     <use xlink:href="#DejaVuSans-63" x="1259.994141"/>
     <use xlink:href="#DejaVuSans-65" x="1314.974609"/>
    </g>
   </g>
   <g id="legend_1">
    <g id="patch_7">
     <path d="M 305.280937 302.584 
L 407.72 302.584 
Q 409.72 302.584 409.72 300.584 
L 409.72 228.193375 
Q 409.72 226.193375 407.72 226.193375 
L 305.280937 226.193375 
Q 303.280937 226.193375 303.280937 228.193375 
L 303.280937 300.584 
Q 303.280937 302.584 305.280937 302.584 
z
" style="fill: #ffffff; opacity: 0.8; stroke: #cccccc; stroke-linejoin: miter"/>
    </g>
    <g id="text_21">
     <!-- Hodnoty parametru -->
     <g transform="translate(307.280937 237.791812) scale(0.1 -0.1)">
      <defs>
       <path id="DejaVuSans-48" d="M 628 4666 
L 1259 4666 
L 1259 2753 
L 3553 2753 
L 3553 4666 
L 4184 4666 
L 4184 0 
L 3553 0 
L 3553 2222 
L 1259 2222 
L 1259 0 
L 628 0 
L 628 4666 
z
" transform="scale(0.015625)"/>
       <path id="DejaVuSans-74" d="M 1172 4494 
L 1172 3500 
L 2356 3500 
L 2356 3053 
L 1172 3053 
L 1172 1153 
Q 1172 725 1289 603 
Q 1406 481 1766 481 
L 2356 481 
L 2356 0 
L 1766 0 
Q 1100 0 847 248 
Q 594 497 594 1153 
L 594 3053 
L 172 3053 
L 172 3500 
L 594 3500 
L 594 4494 
L 1172 4494 
z
" transform="scale(0.015625)"/>
       <path id="DejaVuSans-79" d="M 2059 -325 
Q 1816 -950 1584 -1140 
Q 1353 -1331 966 -1331 
L 506 -1331 
L 506 -850 
L 844 -850 
Q 1081 -850 1212 -737 
Q 1344 -625 1503 -206 
L 1606 56 
L 191 3500 
L 800 3500 
L 1894 763 
L 2988 3500 
L 3597 3500 
L 2059 -325 
z
" transform="scale(0.015625)"/>
       <path id="DejaVuSans-70" d="M 1159 525 
L 1159 -1331 
L 581 -1331 
L 581 3500 
L 1159 3500 
L 1159 2969 
Q 1341 3281 1617 3432 
Q 1894 3584 2278 3584 
Q 2916 3584 3314 3078 
Q 3713 2572 3713 1747 
Q 3713 922 3314 415 
Q 2916 -91 2278 -91 
Q 1894 -91 1617 61 
Q 1341 213 1159 525 
z
M 3116 1747 
Q 3116 2381 2855 2742 
Q 2594 3103 2138 3103 
Q 1681 3103 1420 2742 
Q 1159 2381 1159 1747 
Q 1159 1113 1420 752 
Q 1681 391 2138 391 
Q 2594 391 2855 752 
Q 3116 1113 3116 1747 
z
" transform="scale(0.015625)"/>
       <path id="DejaVuSans-61" d="M 2194 1759 
Q 1497 1759 1228 1600 
Q 959 1441 959 1056 
Q 959 750 1161 570 
Q 1363 391 1709 391 
Q 2188 391 2477 730 
Q 2766 1069 2766 1631 
L 2766 1759 
L 2194 1759 
z
M 3341 1997 
L 3341 0 
L 2766 0 
L 2766 531 
Q 2569 213 2275 61 
Q 1981 -91 1556 -91 
Q 1019 -91 701 211 
Q 384 513 384 1019 
Q 384 1609 779 1909 
Q 1175 2209 1959 2209 
L 2766 2209 
L 2766 2266 
Q 2766 2663 2505 2880 
Q 2244 3097 1772 3097 
Q 1472 3097 1187 3025 
Q 903 2953 641 2809 
L 641 3341 
Q 956 3463 1253 3523 
Q 1550 3584 1831 3584 
Q 2591 3584 2966 3190 
Q 3341 2797 3341 1997 
z
" transform="scale(0.015625)"/>
       <path id="DejaVuSans-6d" d="M 3328 2828 
Q 3544 3216 3844 3400 
Q 4144 3584 4550 3584 
Q 5097 3584 5394 3201 
Q 5691 2819 5691 2113 
L 5691 0 
L 5113 0 
L 5113 2094 
Q 5113 2597 4934 2840 
Q 4756 3084 4391 3084 
Q 3944 3084 3684 2787 
Q 3425 2491 3425 1978 
L 3425 0 
L 2847 0 
L 2847 2094 
Q 2847 2600 2669 2842 
Q 2491 3084 2119 3084 
Q 1678 3084 1418 2786 
Q 1159 2488 1159 1978 
L 1159 0 
L 581 0 
L 581 3500 
L 1159 3500 
L 1159 2956 
Q 1356 3278 1631 3431 
Q 1906 3584 2284 3584 
Q 2666 3584 2933 3390 
Q 3200 3197 3328 2828 
z
" transform="scale(0.015625)"/>
       <path id="DejaVuSans-75" d="M 544 1381 
L 544 3500 
L 1119 3500 
L 1119 1403 
Q 1119 906 1312 657 
Q 1506 409 1894 409 
Q 2359 409 2629 706 
Q 2900 1003 2900 1516 
L 2900 3500 
L 3475 3500 
L 3475 0 
L 2900 0 
L 2900 538 
Q 2691 219 2414 64 
Q 2138 -91 1772 -91 
Q 1169 -91 856 284 
Q 544 659 544 1381 
z
M 1991 3584 
L 1991 3584 
z
" transform="scale(0.015625)"/>
      </defs>
      <use xlink:href="#DejaVuSans-48"/>
      <use xlink:href="#DejaVuSans-6f" x="75.195312"/>
      <use xlink:href="#DejaVuSans-64" x="136.376953"/>
      <use xlink:href="#DejaVuSans-6e" x="199.853516"/>
      <use xlink:href="#DejaVuSans-6f" x="263.232422"/>
      <use xlink:href="#DejaVuSans-74" x="324.414062"/>
      <use xlink:href="#DejaVuSans-79" x="363.623047"/>
      <use xlink:href="#DejaVuSans-20" x="422.802734"/>
      <use xlink:href="#DejaVuSans-70" x="454.589844"/>
      <use xlink:href="#DejaVuSans-61" x="518.066406"/>
      <use xlink:href="#DejaVuSans-72" x="579.345703"/>
      <use xlink:href="#DejaVuSans-61" x="620.458984"/>
      <use xlink:href="#DejaVuSans-6d" x="681.738281"/>
      <use xlink:href="#DejaVuSans-65" x="779.150391"/>
      <use xlink:href="#DejaVuSans-74" x="840.673828"/>
      <use xlink:href="#DejaVuSans-72" x="879.882812"/>
      <use xlink:href="#DejaVuSans-75" x="920.996094"/>
     </g>
    </g>
    <g id="line2d_22">
     <path d="M 331.367656 248.969937 
L 341.367656 248.969937 
L 351.367656 248.969937 
" style="fill: none; stroke: #1f77b4; stroke-width: 1.5; stroke-linecap: square"/>
    </g>
    <g id="text_22">
     <!-- 0.25 -->
     <g transform="translate(359.367656 252.469937) scale(0.1 -0.1)">
      <defs>
       <path id="DejaVuSans-2e" d="M 684 794 
L 1344 794 
L 1344 0 
L 684 0 
L 684 794 
z
" transform="scale(0.015625)"/>
       <path id="DejaVuSans-35" d="M 691 4666 
L 3169 4666 
L 3169 4134 
L 1269 4134 
L 1269 2991 
Q 1406 3038 1543 3061 
Q 1681 3084 1819 3084 
Q 2600 3084 3056 2656 
Q 3513 2228 3513 1497 
Q 3513 744 3044 326 
Q 2575 -91 1722 -91 
Q 1428 -91 1123 -41 
Q 819 9 494 109 
L 494 744 
Q 775 591 1075 516 
Q 1375 441 1709 441 
Q 2250 441 2565 725 
Q 2881 1009 2881 1497 
Q 2881 1984 2565 2268 
Q 2250 2553 1709 2553 
Q 1456 2553 1204 2497 
Q 953 2441 691 2322 
L 691 4666 
z
" transform="scale(0.015625)"/>
      </defs>
      <use xlink:href="#DejaVuSans-30"/>
      <use xlink:href="#DejaVuSans-2e" x="63.623047"/>
      <use xlink:href="#DejaVuSans-32" x="95.410156"/>
      <use xlink:href="#DejaVuSans-35" x="159.033203"/>
     </g>
    </g>
    <g id="line2d_23">
     <path d="M 331.367656 263.648062 
L 341.367656 263.648062 
L 351.367656 263.648062 
" style="fill: none; stroke: #ff7f0e; stroke-width: 1.5; stroke-linecap: square"/>
    </g>
    <g id="text_23">
     <!-- 0.5 -->
     <g transform="translate(359.367656 267.148062) scale(0.1 -0.1)">
      <use xlink:href="#DejaVuSans-30"/>
      <use xlink:href="#DejaVuSans-2e" x="63.623047"/>
      <use xlink:href="#DejaVuSans-35" x="95.410156"/>
     </g>
    </g>
    <g id="line2d_24">
     <path d="M 331.367656 278.326188 
L 341.367656 278.326188 
L 351.367656 278.326188 
" style="fill: none; stroke: #2ca02c; stroke-width: 1.5; stroke-linecap: square"/>
    </g>
    <g id="text_24">
     <!-- 1 -->
     <g transform="translate(359.367656 281.826188) scale(0.1 -0.1)">
      <use xlink:href="#DejaVuSans-31"/>
     </g>
    </g>
    <g id="line2d_25">
     <path d="M 331.367656 293.004312 
L 341.367656 293.004312 
L 351.367656 293.004312 
" style="fill: none; stroke: #d62728; stroke-width: 1.5; stroke-linecap: square"/>
    </g>
    <g id="text_25">
     <!-- 2 -->
     <g transform="translate(359.367656 296.504312) scale(0.1 -0.1)">
      <use xlink:href="#DejaVuSans-32"/>
     </g>
    </g>
   </g>
  </g>
 </g>
 <defs>
  <clipPath id="pd9fa5f74eb">
   <rect x="57.6" y="41.472" width="357.12" height="266.112"/>
  </clipPath>
 </defs>
</svg>
