<?xml version="1.0" encoding="utf-8" standalone="no"?>
<!DOCTYPE svg PUBLIC "-//W3C//DTD SVG 1.1//EN"
  "http://www.w3.org/Graphics/SVG/1.1/DTD/svg11.dtd">
<svg xmlns:xlink="http://www.w3.org/1999/xlink" width="460.8pt" height="345.6pt" viewBox="0 0 460.8 345.6" xmlns="http://www.w3.org/2000/svg" version="1.1">
 <metadata>
  <rdf:RDF xmlns:dc="http://purl.org/dc/elements/1.1/" xmlns:cc="http://creativecommons.org/ns#" xmlns:rdf="http://www.w3.org/1999/02/22-rdf-syntax-ns#">
   <cc:Work>
    <dc:type rdf:resource="http://purl.org/dc/dcmitype/StillImage"/>
    <dc:date>2023-09-30T06:16:24.168937</dc:date>
    <dc:format>image/svg+xml</dc:format>
    <dc:creator>
     <cc:Agent>
      <dc:title>Matplotlib v3.7.1, https://matplotlib.org/</dc:title>
     </cc:Agent>
    </dc:creator>
   </cc:Work>
  </rdf:RDF>
 </metadata>
 <defs>
  <style type="text/css">*{stroke-linejoin: round; stroke-linecap: butt}</style>
 </defs>
 <g id="figure_1">
  <g id="patch_1">
   <path d="M 0 345.6 
L 460.8 345.6 
L 460.8 0 
L 0 0 
z
" style="fill: #ffffff"/>
  </g>
  <g id="axes_1">
   <g id="patch_2">
    <path d="M 57.6 307.584 
L 414.72 307.584 
L 414.72 41.472 
L 57.6 41.472 
z
" style="fill: #ffffff"/>
   </g>
   <g id="matplotlib.axis_1">
    <g id="xtick_1">
     <g id="line2d_1">
      <defs>
       <path id="m87c0642c6b" d="M 0 0 
L 0 3.5 
" style="stroke: #000000; stroke-width: 0.8"/>
      </defs>
      <g>
       <use xlink:href="#m87c0642c6b" x="73.832727" y="307.584" style="stroke: #000000; stroke-width: 0.8"/>
      </g>
     </g>
     <g id="text_1">
      <!-- 0 -->
      <g transform="translate(70.651477 322.182437) scale(0.1 -0.1)">
       <defs>
        <path id="DejaVuSans-30" d="M 2034 4250 
Q 1547 4250 1301 3770 
Q 1056 3291 1056 2328 
Q 1056 1369 1301 889 
Q 1547 409 2034 409 
Q 2525 409 2770 889 
Q 3016 1369 3016 2328 
Q 3016 3291 2770 3770 
Q 2525 4250 2034 4250 
z
M 2034 4750 
Q 2819 4750 3233 4129 
Q 3647 3509 3647 2328 
Q 3647 1150 3233 529 
Q 2819 -91 2034 -91 
Q 1250 -91 836 529 
Q 422 1150 422 2328 
Q 422 3509 836 4129 
Q 1250 4750 2034 4750 
z
" transform="scale(0.015625)"/>
       </defs>
       <use xlink:href="#DejaVuSans-30"/>
      </g>
     </g>
    </g>
    <g id="xtick_2">
     <g id="line2d_2">
      <g>
       <use xlink:href="#m87c0642c6b" x="117.12" y="307.584" style="stroke: #000000; stroke-width: 0.8"/>
      </g>
     </g>
     <g id="text_2">
      <!-- 2 -->
      <g transform="translate(113.93875 322.182437) scale(0.1 -0.1)">
       <defs>
        <path id="DejaVuSans-32" d="M 1228 531 
L 3431 531 
L 3431 0 
L 469 0 
L 469 531 
Q 828 903 1448 1529 
Q 2069 2156 2228 2338 
Q 2531 2678 2651 2914 
Q 2772 3150 2772 3378 
Q 2772 3750 2511 3984 
Q 2250 4219 1831 4219 
Q 1534 4219 1204 4116 
Q 875 4013 500 3803 
L 500 4441 
Q 881 4594 1212 4672 
Q 1544 4750 1819 4750 
Q 2544 4750 2975 4387 
Q 3406 4025 3406 3419 
Q 3406 3131 3298 2873 
Q 3191 2616 2906 2266 
Q 2828 2175 2409 1742 
Q 1991 1309 1228 531 
z
" transform="scale(0.015625)"/>
       </defs>
       <use xlink:href="#DejaVuSans-32"/>
      </g>
     </g>
    </g>
    <g id="xtick_3">
     <g id="line2d_3">
      <g>
       <use xlink:href="#m87c0642c6b" x="160.407273" y="307.584" style="stroke: #000000; stroke-width: 0.8"/>
      </g>
     </g>
     <g id="text_3">
      <!-- 4 -->
      <g transform="translate(157.226023 322.182437) scale(0.1 -0.1)">
       <defs>
        <path id="DejaVuSans-34" d="M 2419 4116 
L 825 1625 
L 2419 1625 
L 2419 4116 
z
M 2253 4666 
L 3047 4666 
L 3047 1625 
L 3713 1625 
L 3713 1100 
L 3047 1100 
L 3047 0 
L 2419 0 
L 2419 1100 
L 313 1100 
L 313 1709 
L 2253 4666 
z
" transform="scale(0.015625)"/>
       </defs>
       <use xlink:href="#DejaVuSans-34"/>
      </g>
     </g>
    </g>
    <g id="xtick_4">
     <g id="line2d_4">
      <g>
       <use xlink:href="#m87c0642c6b" x="203.694545" y="307.584" style="stroke: #000000; stroke-width: 0.8"/>
      </g>
     </g>
     <g id="text_4">
      <!-- 6 -->
      <g transform="translate(200.513295 322.182437) scale(0.1 -0.1)">
       <defs>
        <path id="DejaVuSans-36" d="M 2113 2584 
Q 1688 2584 1439 2293 
Q 1191 2003 1191 1497 
Q 1191 994 1439 701 
Q 1688 409 2113 409 
Q 2538 409 2786 701 
Q 3034 994 3034 1497 
Q 3034 2003 2786 2293 
Q 2538 2584 2113 2584 
z
M 3366 4563 
L 3366 3988 
Q 3128 4100 2886 4159 
Q 2644 4219 2406 4219 
Q 1781 4219 1451 3797 
Q 1122 3375 1075 2522 
Q 1259 2794 1537 2939 
Q 1816 3084 2150 3084 
Q 2853 3084 3261 2657 
Q 3669 2231 3669 1497 
Q 3669 778 3244 343 
Q 2819 -91 2113 -91 
Q 1303 -91 875 529 
Q 447 1150 447 2328 
Q 447 3434 972 4092 
Q 1497 4750 2381 4750 
Q 2619 4750 2861 4703 
Q 3103 4656 3366 4563 
z
" transform="scale(0.015625)"/>
       </defs>
       <use xlink:href="#DejaVuSans-36"/>
      </g>
     </g>
    </g>
    <g id="xtick_5">
     <g id="line2d_5">
      <g>
       <use xlink:href="#m87c0642c6b" x="246.981818" y="307.584" style="stroke: #000000; stroke-width: 0.8"/>
      </g>
     </g>
     <g id="text_5">
      <!-- 8 -->
      <g transform="translate(243.800568 322.182437) scale(0.1 -0.1)">
       <defs>
        <path id="DejaVuSans-38" d="M 2034 2216 
Q 1584 2216 1326 1975 
Q 1069 1734 1069 1313 
Q 1069 891 1326 650 
Q 1584 409 2034 409 
Q 2484 409 2743 651 
Q 3003 894 3003 1313 
Q 3003 1734 2745 1975 
Q 2488 2216 2034 2216 
z
M 1403 2484 
Q 997 2584 770 2862 
Q 544 3141 544 3541 
Q 544 4100 942 4425 
Q 1341 4750 2034 4750 
Q 2731 4750 3128 4425 
Q 3525 4100 3525 3541 
Q 3525 3141 3298 2862 
Q 3072 2584 2669 2484 
Q 3125 2378 3379 2068 
Q 3634 1759 3634 1313 
Q 3634 634 3220 271 
Q 2806 -91 2034 -91 
Q 1263 -91 848 271 
Q 434 634 434 1313 
Q 434 1759 690 2068 
Q 947 2378 1403 2484 
z
M 1172 3481 
Q 1172 3119 1398 2916 
Q 1625 2713 2034 2713 
Q 2441 2713 2670 2916 
Q 2900 3119 2900 3481 
Q 2900 3844 2670 4047 
Q 2441 4250 2034 4250 
Q 1625 4250 1398 4047 
Q 1172 3844 1172 3481 
z
" transform="scale(0.015625)"/>
       </defs>
       <use xlink:href="#DejaVuSans-38"/>
      </g>
     </g>
    </g>
    <g id="xtick_6">
     <g id="line2d_6">
      <g>
       <use xlink:href="#m87c0642c6b" x="290.269091" y="307.584" style="stroke: #000000; stroke-width: 0.8"/>
      </g>
     </g>
     <g id="text_6">
      <!-- 10 -->
      <g transform="translate(283.906591 322.182437) scale(0.1 -0.1)">
       <defs>
        <path id="DejaVuSans-31" d="M 794 531 
L 1825 531 
L 1825 4091 
L 703 3866 
L 703 4441 
L 1819 4666 
L 2450 4666 
L 2450 531 
L 3481 531 
L 3481 0 
L 794 0 
L 794 531 
z
" transform="scale(0.015625)"/>
       </defs>
       <use xlink:href="#DejaVuSans-31"/>
       <use xlink:href="#DejaVuSans-30" x="63.623047"/>
      </g>
     </g>
    </g>
    <g id="xtick_7">
     <g id="line2d_7">
      <g>
       <use xlink:href="#m87c0642c6b" x="333.556364" y="307.584" style="stroke: #000000; stroke-width: 0.8"/>
      </g>
     </g>
     <g id="text_7">
      <!-- 12 -->
      <g transform="translate(327.193864 322.182437) scale(0.1 -0.1)">
       <use xlink:href="#DejaVuSans-31"/>
       <use xlink:href="#DejaVuSans-32" x="63.623047"/>
      </g>
     </g>
    </g>
    <g id="xtick_8">
     <g id="line2d_8">
      <g>
       <use xlink:href="#m87c0642c6b" x="376.843636" y="307.584" style="stroke: #000000; stroke-width: 0.8"/>
      </g>
     </g>
     <g id="text_8">
      <!-- 14 -->
      <g transform="translate(370.481136 322.182437) scale(0.1 -0.1)">
       <use xlink:href="#DejaVuSans-31"/>
       <use xlink:href="#DejaVuSans-34" x="63.623047"/>
      </g>
     </g>
    </g>
    <g id="text_9">
     <!-- $t$ -->
     <g transform="translate(234.16 335.860562) scale(0.1 -0.1)">
      <defs>
       <path id="DejaVuSans-Oblique-74" d="M 2706 3500 
L 2619 3053 
L 1472 3053 
L 1100 1153 
Q 1081 1047 1072 975 
Q 1063 903 1063 863 
Q 1063 663 1183 572 
Q 1303 481 1569 481 
L 2150 481 
L 2053 0 
L 1503 0 
Q 991 0 739 200 
Q 488 400 488 806 
Q 488 878 497 964 
Q 506 1050 525 1153 
L 897 3053 
L 409 3053 
L 500 3500 
L 978 3500 
L 1172 4494 
L 1747 4494 
L 1556 3500 
L 2706 3500 
z
" transform="scale(0.015625)"/>
      </defs>
      <use xlink:href="#DejaVuSans-Oblique-74" transform="translate(0 0.78125)"/>
     </g>
    </g>
   </g>
   <g id="matplotlib.axis_2">
    <g id="ytick_1">
     <g id="line2d_9">
      <defs>
       <path id="m3900aa96b6" d="M 0 0 
L -3.5 0 
" style="stroke: #000000; stroke-width: 0.8"/>
      </defs>
      <g>
       <use xlink:href="#m3900aa96b6" x="57.6" y="307.584" style="stroke: #000000; stroke-width: 0.8"/>
      </g>
     </g>
     <g id="text_10">
      <!-- 0 -->
      <g transform="translate(44.2375 311.383219) scale(0.1 -0.1)">
       <use xlink:href="#DejaVuSans-30"/>
      </g>
     </g>
    </g>
    <g id="ytick_2">
     <g id="line2d_10">
      <g>
       <use xlink:href="#m3900aa96b6" x="57.6" y="276.556745" style="stroke: #000000; stroke-width: 0.8"/>
      </g>
     </g>
     <g id="text_11">
      <!-- 2 -->
      <g transform="translate(44.2375 280.355964) scale(0.1 -0.1)">
       <use xlink:href="#DejaVuSans-32"/>
      </g>
     </g>
    </g>
    <g id="ytick_3">
     <g id="line2d_11">
      <g>
       <use xlink:href="#m3900aa96b6" x="57.6" y="245.52949" style="stroke: #000000; stroke-width: 0.8"/>
      </g>
     </g>
     <g id="text_12">
      <!-- 4 -->
      <g transform="translate(44.2375 249.328709) scale(0.1 -0.1)">
       <use xlink:href="#DejaVuSans-34"/>
      </g>
     </g>
    </g>
    <g id="ytick_4">
     <g id="line2d_12">
      <g>
       <use xlink:href="#m3900aa96b6" x="57.6" y="214.502235" style="stroke: #000000; stroke-width: 0.8"/>
      </g>
     </g>
     <g id="text_13">
      <!-- 6 -->
      <g transform="translate(44.2375 218.301454) scale(0.1 -0.1)">
       <use xlink:href="#DejaVuSans-36"/>
      </g>
     </g>
    </g>
    <g id="ytick_5">
     <g id="line2d_13">
      <g>
       <use xlink:href="#m3900aa96b6" x="57.6" y="183.47498" style="stroke: #000000; stroke-width: 0.8"/>
      </g>
     </g>
     <g id="text_14">
      <!-- 8 -->
      <g transform="translate(44.2375 187.274199) scale(0.1 -0.1)">
       <use xlink:href="#DejaVuSans-38"/>
      </g>
     </g>
    </g>
    <g id="ytick_6">
     <g id="line2d_14">
      <g>
       <use xlink:href="#m3900aa96b6" x="57.6" y="152.447725" style="stroke: #000000; stroke-width: 0.8"/>
      </g>
     </g>
     <g id="text_15">
      <!-- 10 -->
      <g transform="translate(37.875 156.246944) scale(0.1 -0.1)">
       <use xlink:href="#DejaVuSans-31"/>
       <use xlink:href="#DejaVuSans-30" x="63.623047"/>
      </g>
     </g>
    </g>
    <g id="ytick_7">
     <g id="line2d_15">
      <g>
       <use xlink:href="#m3900aa96b6" x="57.6" y="121.42047" style="stroke: #000000; stroke-width: 0.8"/>
      </g>
     </g>
     <g id="text_16">
      <!-- 12 -->
      <g transform="translate(37.875 125.219689) scale(0.1 -0.1)">
       <use xlink:href="#DejaVuSans-31"/>
       <use xlink:href="#DejaVuSans-32" x="63.623047"/>
      </g>
     </g>
    </g>
    <g id="ytick_8">
     <g id="line2d_16">
      <g>
       <use xlink:href="#m3900aa96b6" x="57.6" y="90.393215" style="stroke: #000000; stroke-width: 0.8"/>
      </g>
     </g>
     <g id="text_17">
      <!-- 14 -->
      <g transform="translate(37.875 94.192434) scale(0.1 -0.1)">
       <use xlink:href="#DejaVuSans-31"/>
       <use xlink:href="#DejaVuSans-34" x="63.623047"/>
      </g>
     </g>
    </g>
    <g id="ytick_9">
     <g id="line2d_17">
      <g>
       <use xlink:href="#m3900aa96b6" x="57.6" y="59.36596" style="stroke: #000000; stroke-width: 0.8"/>
      </g>
     </g>
     <g id="text_18">
      <!-- 16 -->
      <g transform="translate(37.875 63.165179) scale(0.1 -0.1)">
       <use xlink:href="#DejaVuSans-31"/>
       <use xlink:href="#DejaVuSans-36" x="63.623047"/>
      </g>
     </g>
    </g>
    <g id="text_19">
     <!-- $x$ -->
     <g transform="translate(31.795313 177.528) rotate(-90) scale(0.1 -0.1)">
      <defs>
       <path id="DejaVuSans-Oblique-78" d="M 3841 3500 
L 2234 1784 
L 3219 0 
L 2559 0 
L 1819 1388 
L 531 0 
L -166 0 
L 1556 1844 
L 641 3500 
L 1300 3500 
L 1972 2234 
L 3144 3500 
L 3841 3500 
z
" transform="scale(0.015625)"/>
      </defs>
      <use xlink:href="#DejaVuSans-Oblique-78" transform="translate(0 0.3125)"/>
     </g>
    </g>
   </g>
   <g id="line2d_18">
    <path d="M 73.832727 307.584 
L 77.112066 262.486178 
L 80.391405 243.009811 
L 83.670744 228.248015 
L 86.950083 216.172673 
L 90.229421 205.859353 
L 93.50876 196.697211 
L 96.788099 188.40611 
L 100.067438 180.878385 
L 103.346777 173.993802 
L 106.626116 167.652083 
L 109.905455 161.773214 
L 113.184793 156.297442 
L 116.464132 151.180435 
L 119.743471 146.382094 
L 123.02281 141.876933 
L 126.302149 137.641783 
L 129.581488 133.654999 
L 132.860826 129.896463 
L 136.140165 126.347582 
L 139.419504 122.991292 
L 142.698843 119.812052 
L 145.978182 116.795848 
L 149.257521 113.930193 
L 152.53686 111.204125 
L 155.816198 108.608208 
L 159.095537 106.134518 
L 162.374876 103.776935 
L 165.654215 101.530028 
L 168.933554 99.388522 
L 172.212893 97.347308 
L 175.492231 95.401437 
L 178.77157 93.546121 
L 182.050909 91.776736 
L 185.330248 90.088817 
L 188.609587 88.478062 
L 191.888926 86.940332 
L 195.168264 85.471648 
L 198.447603 84.068193 
L 201.726942 82.726313 
L 205.006281 81.442513 
L 208.28562 80.213463 
L 211.564959 79.035993 
L 214.844298 77.907095 
L 218.123636 76.823945 
L 221.402975 75.78456 
L 224.682314 74.787565 
L 227.961653 73.831575 
L 231.240992 72.915217 
L 234.520331 72.037135 
L 237.799669 71.195984 
L 241.079008 70.390431 
L 244.358347 69.61916 
L 247.637686 68.880867 
L 250.917025 68.174262 
L 254.196364 67.498066 
L 257.475702 66.851017 
L 260.755041 66.231864 
L 264.03438 65.639372 
L 267.313719 65.072317 
L 270.593058 64.529491 
L 273.872397 64.009696 
L 277.151736 63.511751 
L 280.431074 63.034487 
L 283.710413 62.576749 
L 286.989752 62.137395 
L 290.269091 61.715296 
L 293.54843 61.309338 
L 296.827769 60.91842 
L 300.107107 60.541455 
L 303.386446 60.17767 
L 306.665785 59.827539 
L 309.945124 59.490811 
L 313.224463 59.167126 
L 316.503802 58.856122 
L 319.78314 58.557438 
L 323.062479 58.270712 
L 326.341818 57.995582 
L 329.621157 57.731686 
L 332.900496 57.478664 
L 336.179835 57.236152 
L 339.459174 57.00379 
L 342.738512 56.781215 
L 346.017851 56.568066 
L 349.29719 56.363979 
L 352.576529 56.168595 
L 355.855868 55.981549 
L 359.135207 55.802481 
L 362.414545 55.631027 
L 365.693884 55.466827 
L 368.973223 55.309517 
L 372.252562 55.158735 
L 375.531901 55.014119 
L 378.81124 54.875306 
L 382.090579 54.741934 
L 385.369917 54.613641 
L 388.649256 54.490063 
L 391.928595 54.370839 
L 395.207934 54.255606 
L 398.487273 54.144 
" clip-path="url(#p9e86d9922e)" style="fill: none; stroke: #1f77b4; stroke-width: 1.5; stroke-linecap: square"/>
   </g>
   <g id="line2d_19">
    <path d="M 73.832727 307.584 
L 77.112066 276.526167 
L 80.391405 262.704443 
L 83.670744 252.303554 
L 86.950083 243.652485 
L 90.229421 236.214501 
L 93.50876 229.651742 
L 96.788099 223.731593 
L 100.067438 218.322526 
L 103.346777 213.348985 
L 106.626116 208.755426 
L 109.905455 204.493677 
L 113.184793 200.521737 
L 116.464132 196.803779 
L 119.743471 193.310144 
L 123.02281 190.017347 
L 126.302149 186.907916 
L 129.581488 183.965501 
L 132.860826 181.177774 
L 136.140165 178.534846 
L 139.419504 176.027332 
L 142.698843 173.646349 
L 145.978182 171.383517 
L 149.257521 169.230959 
L 152.53686 167.181302 
L 155.816198 165.227674 
L 159.095537 163.363709 
L 162.374876 161.583542 
L 165.654215 159.881812 
L 168.933554 158.253659 
L 172.212893 156.694729 
L 175.492231 155.201149 
L 178.77157 153.769469 
L 182.050909 152.39713 
L 185.330248 151.081783 
L 188.609587 149.821132 
L 191.888926 148.612935 
L 195.168264 147.455003 
L 198.447603 146.345204 
L 201.726942 145.281458 
L 205.006281 144.261739 
L 208.28562 143.284074 
L 211.564959 142.346547 
L 214.844298 141.447293 
L 218.123636 140.584504 
L 221.402975 139.756422 
L 224.682314 138.961347 
L 227.961653 138.197631 
L 231.240992 137.46368 
L 234.520331 136.757954 
L 237.799669 136.078968 
L 241.079008 135.425291 
L 244.358347 134.795545 
L 247.637686 134.188425 
L 250.917025 133.603185 
L 254.196364 133.039299 
L 257.475702 132.496169 
L 260.755041 131.973202 
L 264.03438 131.469809 
L 267.313719 130.985402 
L 270.593058 130.519398 
L 273.872397 130.07122 
L 277.151736 129.64029 
L 280.431074 129.226037 
L 283.710413 128.827892 
L 286.989752 128.445291 
L 290.269091 128.077672 
L 293.54843 127.724476 
L 296.827769 127.385151 
L 300.107107 127.059145 
L 303.386446 126.74591 
L 306.665785 126.444904 
L 309.945124 126.155587 
L 313.224463 125.877421 
L 316.503802 125.609875 
L 319.78314 125.352418 
L 323.062479 125.104526 
L 326.341818 124.865676 
L 329.621157 124.635349 
L 332.900496 124.413031 
L 336.179835 124.19821 
L 339.459174 123.990378 
L 342.738512 123.789031 
L 346.017851 123.594089 
L 349.29719 123.406215 
L 352.576529 123.225208 
L 355.855868 123.050823 
L 359.135207 122.882825 
L 362.414545 122.720983 
L 365.693884 122.565073 
L 368.973223 122.414877 
L 372.252562 122.270185 
L 375.531901 122.130789 
L 378.81124 121.996492 
L 382.090579 121.8671 
L 385.369917 121.742427 
L 388.649256 121.622291 
L 391.928595 121.506518 
L 395.207934 121.39494 
L 398.487273 121.287396 
" clip-path="url(#p9e86d9922e)" style="fill: none; stroke: #ff7f0e; stroke-width: 1.5; stroke-linecap: square"/>
   </g>
   <g id="line2d_20">
    <path d="M 73.832727 307.584 
L 77.112066 286.408627 
L 80.391405 276.644105 
L 83.670744 269.247795 
L 86.950083 263.148438 
L 90.229421 257.838125 
L 93.50876 253.114951 
L 96.788099 248.862753 
L 100.067438 244.98921 
L 103.346777 241.422651 
L 106.626116 238.112058 
L 109.905455 235.024449 
L 113.184793 232.132274 
L 116.464132 229.417324 
L 119.743471 226.863531 
L 123.02281 224.456137 
L 126.302149 222.181688 
L 129.581488 220.028039 
L 132.860826 217.984352 
L 136.140165 216.041096 
L 139.419504 214.190046 
L 142.698843 212.424285 
L 145.978182 210.738204 
L 149.257521 209.126753 
L 152.53686 207.585497 
L 155.816198 206.111036 
L 159.095537 204.700094 
L 162.374876 203.349517 
L 165.654215 202.056269 
L 168.933554 200.817435 
L 172.212893 199.630224 
L 175.492231 198.49196 
L 178.77157 197.400093 
L 182.050909 196.352191 
L 185.330248 195.345942 
L 188.609587 194.379155 
L 191.888926 193.449763 
L 195.168264 192.555814 
L 198.447603 191.69548 
L 201.726942 190.867054 
L 205.006281 190.068949 
L 208.28562 189.299695 
L 211.564959 188.557998 
L 214.844298 187.842931 
L 218.123636 187.153649 
L 221.402975 186.489317 
L 224.682314 185.849118 
L 227.961653 185.232243 
L 231.240992 184.637899 
L 234.520331 184.065305 
L 237.799669 183.513693 
L 241.079008 182.982306 
L 244.358347 182.470403 
L 247.637686 181.977255 
L 250.917025 181.502143 
L 254.196364 181.044366 
L 257.475702 180.603231 
L 260.755041 180.178061 
L 264.03438 179.768191 
L 267.313719 179.372969 
L 270.593058 178.991754 
L 273.872397 178.623922 
L 277.151736 178.268858 
L 280.431074 177.925962 
L 283.710413 177.594645 
L 286.989752 177.274334 
L 290.269091 176.964466 
L 293.54843 176.664492 
L 296.827769 176.373893 
L 300.107107 176.092643 
L 303.386446 175.820657 
L 306.665785 175.557694 
L 309.945124 175.303513 
L 313.224463 175.057876 
L 316.503802 174.820545 
L 319.78314 174.591288 
L 323.062479 174.369871 
L 326.341818 174.156064 
L 329.621157 173.949638 
L 332.900496 173.750368 
L 336.179835 173.558029 
L 339.459174 173.372399 
L 342.738512 173.193256 
L 346.017851 173.020384 
L 349.29719 172.853566 
L 352.576529 172.692588 
L 355.855868 172.537236 
L 359.135207 172.387302 
L 362.414545 172.242577 
L 365.693884 172.102855 
L 368.973223 171.967931 
L 372.252562 171.837604 
L 375.531901 171.711673 
L 378.81124 171.58994 
L 382.090579 171.47221 
L 385.369917 171.358288 
L 388.649256 171.247981 
L 391.928595 171.141101 
L 395.207934 171.037458 
L 398.487273 170.936868 
" clip-path="url(#p9e86d9922e)" style="fill: none; stroke: #2ca02c; stroke-width: 1.5; stroke-linecap: square"/>
   </g>
   <g id="line2d_21">
    <path d="M 73.832727 307.584 
L 77.112066 293.376916 
L 80.391405 286.491371 
L 83.670744 281.259923 
L 86.950083 276.830156 
L 90.229421 272.991261 
L 93.50876 269.636097 
L 96.788099 266.667177 
L 100.067438 263.996668 
L 103.346777 261.546387 
L 106.626116 259.247806 
L 109.905455 257.042101 
L 113.184793 254.935441 
L 116.464132 252.95366 
L 119.743471 251.084696 
L 123.02281 249.317715 
L 126.302149 247.643109 
L 129.581488 246.052498 
L 132.860826 244.538731 
L 136.140165 243.095883 
L 139.419504 241.719126 
L 142.698843 240.402679 
L 145.978182 239.142779 
L 149.257521 237.936611 
L 152.53686 236.781463 
L 155.816198 235.674723 
L 159.095537 234.613886 
L 162.374876 233.596547 
L 165.654215 232.620405 
L 168.933554 231.683262 
L 172.212893 230.783024 
L 175.492231 229.917696 
L 178.77157 229.085392 
L 182.050909 228.284324 
L 185.330248 227.512808 
L 188.609587 226.769266 
L 191.888926 226.052219 
L 195.168264 225.360293 
L 198.447603 224.692216 
L 201.726942 224.04682 
L 205.006281 223.423109 
L 208.28562 222.82049 
L 211.564959 222.238316 
L 214.844298 221.675933 
L 218.123636 221.132697 
L 221.402975 220.607979 
L 224.682314 220.101159 
L 227.961653 219.611632 
L 231.240992 219.138801 
L 234.520331 218.682085 
L 237.799669 218.240912 
L 241.079008 217.814723 
L 244.358347 217.402972 
L 247.637686 217.005123 
L 250.917025 216.620653 
L 254.196364 216.249051 
L 257.475702 215.889819 
L 260.755041 215.542467 
L 264.03438 215.206522 
L 267.313719 214.88152 
L 270.593058 214.567009 
L 273.872397 214.26255 
L 277.151736 213.967715 
L 280.431074 213.682089 
L 283.710413 213.405268 
L 286.989752 213.13686 
L 290.269091 212.876486 
L 293.54843 212.623837 
L 296.827769 212.378857 
L 300.107107 212.141376 
L 303.386446 211.911203 
L 306.665785 211.688151 
L 309.945124 211.472033 
L 313.224463 211.262664 
L 316.503802 211.059863 
L 319.78314 210.86345 
L 323.062479 210.673245 
L 326.341818 210.489072 
L 329.621157 210.310755 
L 332.900496 210.138123 
L 336.179835 209.971003 
L 339.459174 209.809227 
L 342.738512 209.652627 
L 346.017851 209.501037 
L 349.29719 209.354295 
L 352.576529 209.212238 
L 355.855868 209.074706 
L 359.135207 208.941541 
L 362.414545 208.812587 
L 365.693884 208.687691 
L 368.973223 208.566698 
L 372.252562 208.44946 
L 375.531901 208.335827 
L 378.81124 208.225652 
L 382.090579 208.11879 
L 385.369917 208.015099 
L 388.649256 207.914437 
L 391.928595 207.816665 
L 395.207934 207.721646 
L 398.487273 207.629243 
" clip-path="url(#p9e86d9922e)" style="fill: none; stroke: #d62728; stroke-width: 1.5; stroke-linecap: square"/>
   </g>
   <g id="patch_3">
    <path d="M 57.6 307.584 
L 57.6 41.472 
" style="fill: none; stroke: #000000; stroke-width: 0.8; stroke-linejoin: miter; stroke-linecap: square"/>
   </g>
   <g id="patch_4">
    <path d="M 414.72 307.584 
L 414.72 41.472 
" style="fill: none; stroke: #000000; stroke-width: 0.8; stroke-linejoin: miter; stroke-linecap: square"/>
   </g>
   <g id="patch_5">
    <path d="M 57.6 307.584 
L 414.72 307.584 
" style="fill: none; stroke: #000000; stroke-width: 0.8; stroke-linejoin: miter; stroke-linecap: square"/>
   </g>
   <g id="patch_6">
    <path d="M 57.6 41.472 
L 414.72 41.472 
" style="fill: none; stroke: #000000; stroke-width: 0.8; stroke-linejoin: miter; stroke-linecap: square"/>
   </g>
   <g id="text_20">
    <!-- Řešení diferenciální rovnice -->
    <g transform="translate(153.569063 35.472) scale(0.12 -0.12)">
     <defs>
      <path id="DejaVuSans-158" d="M 2841 2188 
Q 3044 2119 3236 1894 
Q 3428 1669 3622 1275 
L 4263 0 
L 3584 0 
L 2988 1197 
Q 2756 1666 2539 1819 
Q 2322 1972 1947 1972 
L 1259 1972 
L 1259 0 
L 628 0 
L 628 4666 
L 2053 4666 
Q 2853 4666 3247 4331 
Q 3641 3997 3641 3322 
Q 3641 2881 3436 2590 
Q 3231 2300 2841 2188 
z
M 1259 4147 
L 1259 2491 
L 2053 2491 
Q 2509 2491 2742 2702 
Q 2975 2913 2975 3322 
Q 2975 3731 2742 3939 
Q 2509 4147 2053 4147 
L 1259 4147 
z
M 1697 5066 
L 1038 5897 
L 1472 5897 
L 1991 5341 
L 2509 5897 
L 2944 5897 
L 2284 5066 
L 1697 5066 
z
" transform="scale(0.015625)"/>
      <path id="DejaVuSans-65" d="M 3597 1894 
L 3597 1613 
L 953 1613 
Q 991 1019 1311 708 
Q 1631 397 2203 397 
Q 2534 397 2845 478 
Q 3156 559 3463 722 
L 3463 178 
Q 3153 47 2828 -22 
Q 2503 -91 2169 -91 
Q 1331 -91 842 396 
Q 353 884 353 1716 
Q 353 2575 817 3079 
Q 1281 3584 2069 3584 
Q 2775 3584 3186 3129 
Q 3597 2675 3597 1894 
z
M 3022 2063 
Q 3016 2534 2758 2815 
Q 2500 3097 2075 3097 
Q 1594 3097 1305 2825 
Q 1016 2553 972 2059 
L 3022 2063 
z
" transform="scale(0.015625)"/>
      <path id="DejaVuSans-161" d="M 2834 3397 
L 2834 2853 
Q 2591 2978 2328 3040 
Q 2066 3103 1784 3103 
Q 1356 3103 1142 2972 
Q 928 2841 928 2578 
Q 928 2378 1081 2264 
Q 1234 2150 1697 2047 
L 1894 2003 
Q 2506 1872 2764 1633 
Q 3022 1394 3022 966 
Q 3022 478 2636 193 
Q 2250 -91 1575 -91 
Q 1294 -91 989 -36 
Q 684 19 347 128 
L 347 722 
Q 666 556 975 473 
Q 1284 391 1588 391 
Q 1994 391 2212 530 
Q 2431 669 2431 922 
Q 2431 1156 2273 1281 
Q 2116 1406 1581 1522 
L 1381 1569 
Q 847 1681 609 1914 
Q 372 2147 372 2553 
Q 372 3047 722 3315 
Q 1072 3584 1716 3584 
Q 2034 3584 2315 3537 
Q 2597 3491 2834 3397 
z
M 1503 3944 
L 738 5119 
L 1172 5119 
L 1734 4353 
L 2297 5119 
L 2731 5119 
L 1966 3944 
L 1503 3944 
z
M 1722 3584 
L 1722 3584 
z
" transform="scale(0.015625)"/>
      <path id="DejaVuSans-6e" d="M 3513 2113 
L 3513 0 
L 2938 0 
L 2938 2094 
Q 2938 2591 2744 2837 
Q 2550 3084 2163 3084 
Q 1697 3084 1428 2787 
Q 1159 2491 1159 1978 
L 1159 0 
L 581 0 
L 581 3500 
L 1159 3500 
L 1159 2956 
Q 1366 3272 1645 3428 
Q 1925 3584 2291 3584 
Q 2894 3584 3203 3211 
Q 3513 2838 3513 2113 
z
" transform="scale(0.015625)"/>
      <path id="DejaVuSans-ed" d="M 1325 5119 
L 1947 5119 
L 928 3944 
L 450 3944 
L 1325 5119 
z
M 603 3500 
L 1178 3500 
L 1178 0 
L 603 0 
L 603 3500 
z
M 891 3584 
L 891 3584 
z
" transform="scale(0.015625)"/>
      <path id="DejaVuSans-20" transform="scale(0.015625)"/>
      <path id="DejaVuSans-64" d="M 2906 2969 
L 2906 4863 
L 3481 4863 
L 3481 0 
L 2906 0 
L 2906 525 
Q 2725 213 2448 61 
Q 2172 -91 1784 -91 
Q 1150 -91 751 415 
Q 353 922 353 1747 
Q 353 2572 751 3078 
Q 1150 3584 1784 3584 
Q 2172 3584 2448 3432 
Q 2725 3281 2906 2969 
z
M 947 1747 
Q 947 1113 1208 752 
Q 1469 391 1925 391 
Q 2381 391 2643 752 
Q 2906 1113 2906 1747 
Q 2906 2381 2643 2742 
Q 2381 3103 1925 3103 
Q 1469 3103 1208 2742 
Q 947 2381 947 1747 
z
" transform="scale(0.015625)"/>
      <path id="DejaVuSans-69" d="M 603 3500 
L 1178 3500 
L 1178 0 
L 603 0 
L 603 3500 
z
M 603 4863 
L 1178 4863 
L 1178 4134 
L 603 4134 
L 603 4863 
z
" transform="scale(0.015625)"/>
      <path id="DejaVuSans-66" d="M 2375 4863 
L 2375 4384 
L 1825 4384 
Q 1516 4384 1395 4259 
Q 1275 4134 1275 3809 
L 1275 3500 
L 2222 3500 
L 2222 3053 
L 1275 3053 
L 1275 0 
L 697 0 
L 697 3053 
L 147 3053 
L 147 3500 
L 697 3500 
L 697 3744 
Q 697 4328 969 4595 
Q 1241 4863 1831 4863 
L 2375 4863 
z
" transform="scale(0.015625)"/>
      <path id="DejaVuSans-72" d="M 2631 2963 
Q 2534 3019 2420 3045 
Q 2306 3072 2169 3072 
Q 1681 3072 1420 2755 
Q 1159 2438 1159 1844 
L 1159 0 
L 581 0 
L 581 3500 
L 1159 3500 
L 1159 2956 
Q 1341 3275 1631 3429 
Q 1922 3584 2338 3584 
Q 2397 3584 2469 3576 
Q 2541 3569 2628 3553 
L 2631 2963 
z
" transform="scale(0.015625)"/>
      <path id="DejaVuSans-63" d="M 3122 3366 
L 3122 2828 
Q 2878 2963 2633 3030 
Q 2388 3097 2138 3097 
Q 1578 3097 1268 2742 
Q 959 2388 959 1747 
Q 959 1106 1268 751 
Q 1578 397 2138 397 
Q 2388 397 2633 464 
Q 2878 531 3122 666 
L 3122 134 
Q 2881 22 2623 -34 
Q 2366 -91 2075 -91 
Q 1284 -91 818 406 
Q 353 903 353 1747 
Q 353 2603 823 3093 
Q 1294 3584 2113 3584 
Q 2378 3584 2631 3529 
Q 2884 3475 3122 3366 
z
" transform="scale(0.015625)"/>
      <path id="DejaVuSans-e1" d="M 2194 1759 
Q 1497 1759 1228 1600 
Q 959 1441 959 1056 
Q 959 750 1161 570 
Q 1363 391 1709 391 
Q 2188 391 2477 730 
Q 2766 1069 2766 1631 
L 2766 1759 
L 2194 1759 
z
M 3341 1997 
L 3341 0 
L 2766 0 
L 2766 531 
Q 2569 213 2275 61 
Q 1981 -91 1556 -91 
Q 1019 -91 701 211 
Q 384 513 384 1019 
Q 384 1609 779 1909 
Q 1175 2209 1959 2209 
L 2766 2209 
L 2766 2266 
Q 2766 2663 2505 2880 
Q 2244 3097 1772 3097 
Q 1472 3097 1187 3025 
Q 903 2953 641 2809 
L 641 3341 
Q 956 3463 1253 3523 
Q 1550 3584 1831 3584 
Q 2591 3584 2966 3190 
Q 3341 2797 3341 1997 
z
M 2291 5119 
L 2913 5119 
L 1894 3944 
L 1416 3944 
L 2291 5119 
z
" transform="scale(0.015625)"/>
      <path id="DejaVuSans-6c" d="M 603 4863 
L 1178 4863 
L 1178 0 
L 603 0 
L 603 4863 
z
" transform="scale(0.015625)"/>
      <path id="DejaVuSans-6f" d="M 1959 3097 
Q 1497 3097 1228 2736 
Q 959 2375 959 1747 
Q 959 1119 1226 758 
Q 1494 397 1959 397 
Q 2419 397 2687 759 
Q 2956 1122 2956 1747 
Q 2956 2369 2687 2733 
Q 2419 3097 1959 3097 
z
M 1959 3584 
Q 2709 3584 3137 3096 
Q 3566 2609 3566 1747 
Q 3566 888 3137 398 
Q 2709 -91 1959 -91 
Q 1206 -91 779 398 
Q 353 888 353 1747 
Q 353 2609 779 3096 
Q 1206 3584 1959 3584 
z
" transform="scale(0.015625)"/>
      <path id="DejaVuSans-76" d="M 191 3500 
L 800 3500 
L 1894 563 
L 2988 3500 
L 3597 3500 
L 2284 0 
L 1503 0 
L 191 3500 
z
" transform="scale(0.015625)"/>
     </defs>
     <use xlink:href="#DejaVuSans-158"/>
     <use xlink:href="#DejaVuSans-65" x="64.982422"/>
     <use xlink:href="#DejaVuSans-161" x="126.505859"/>
     <use xlink:href="#DejaVuSans-65" x="178.605469"/>
     <use xlink:href="#DejaVuSans-6e" x="240.128906"/>
     <use xlink:href="#DejaVuSans-ed" x="303.507812"/>
     <use xlink:href="#DejaVuSans-20" x="331.291016"/>
     <use xlink:href="#DejaVuSans-64" x="363.078125"/>
     <use xlink:href="#DejaVuSans-69" x="426.554688"/>
     <use xlink:href="#DejaVuSans-66" x="454.337891"/>
     <use xlink:href="#DejaVuSans-65" x="489.542969"/>
     <use xlink:href="#DejaVuSans-72" x="551.066406"/>
     <use xlink:href="#DejaVuSans-65" x="589.929688"/>
     <use xlink:href="#DejaVuSans-6e" x="651.453125"/>
     <use xlink:href="#DejaVuSans-63" x="714.832031"/>
     <use xlink:href="#DejaVuSans-69" x="769.8125"/>
     <use xlink:href="#DejaVuSans-e1" x="797.595703"/>
     <use xlink:href="#DejaVuSans-6c" x="858.875"/>
     <use xlink:href="#DejaVuSans-6e" x="886.658203"/>
     <use xlink:href="#DejaVuSans-ed" x="950.037109"/>
     <use xlink:href="#DejaVuSans-20" x="977.820312"/>
     <use xlink:href="#DejaVuSans-72" x="1009.607422"/>
     <use xlink:href="#DejaVuSans-6f" x="1048.470703"/>
     <use xlink:href="#DejaVuSans-76" x="1109.652344"/>
     <use xlink:href="#DejaVuSans-6e" x="1168.832031"/>
     <use xlink:href="#DejaVuSans-69" x="1232.210938"/>
     <use xlink:href="#DejaVuSans-63" x="1259.994141"/>
     <use xlink:href="#DejaVuSans-65" x="1314.974609"/>
    </g>
   </g>
   <g id="legend_1">
    <g id="patch_7">
     <path d="M 305.280937 302.584 
L 407.72 302.584 
Q 409.72 302.584 409.72 300.584 
L 409.72 228.193375 
Q 409.72 226.193375 407.72 226.193375 
L 305.280937 226.193375 
Q 303.280937 226.193375 303.280937 228.193375 
L 303.280937 300.584 
Q 303.280937 302.584 305.280937 302.584 
z
" style="fill: #ffffff; opacity: 0.8; stroke: #cccccc; stroke-linejoin: miter"/>
    </g>
    <g id="text_21">
     <!-- Hodnoty parametru -->
     <g transform="translate(307.280937 237.791812) scale(0.1 -0.1)">
      <defs>
       <path id="DejaVuSans-48" d="M 628 4666 
L 1259 4666 
L 1259 2753 
L 3553 2753 
L 3553 4666 
L 4184 4666 
L 4184 0 
L 3553 0 
L 3553 2222 
L 1259 2222 
L 1259 0 
L 628 0 
L 628 4666 
z
" transform="scale(0.015625)"/>
       <path id="DejaVuSans-74" d="M 1172 4494 
L 1172 3500 
L 2356 3500 
L 2356 3053 
L 1172 3053 
L 1172 1153 
Q 1172 725 1289 603 
Q 1406 481 1766 481 
L 2356 481 
L 2356 0 
L 1766 0 
Q 1100 0 847 248 
Q 594 497 594 1153 
L 594 3053 
L 172 3053 
L 172 3500 
L 594 3500 
L 594 4494 
L 1172 4494 
z
" transform="scale(0.015625)"/>
       <path id="DejaVuSans-79" d="M 2059 -325 
Q 1816 -950 1584 -1140 
Q 1353 -1331 966 -1331 
L 506 -1331 
L 506 -850 
L 844 -850 
Q 1081 -850 1212 -737 
Q 1344 -625 1503 -206 
L 1606 56 
L 191 3500 
L 800 3500 
L 1894 763 
L 2988 3500 
L 3597 3500 
L 2059 -325 
z
" transform="scale(0.015625)"/>
       <path id="DejaVuSans-70" d="M 1159 525 
L 1159 -1331 
L 581 -1331 
L 581 3500 
L 1159 3500 
L 1159 2969 
Q 1341 3281 1617 3432 
Q 1894 3584 2278 3584 
Q 2916 3584 3314 3078 
Q 3713 2572 3713 1747 
Q 3713 922 3314 415 
Q 2916 -91 2278 -91 
Q 1894 -91 1617 61 
Q 1341 213 1159 525 
z
M 3116 1747 
Q 3116 2381 2855 2742 
Q 2594 3103 2138 3103 
Q 1681 3103 1420 2742 
Q 1159 2381 1159 1747 
Q 1159 1113 1420 752 
Q 1681 391 2138 391 
Q 2594 391 2855 752 
Q 3116 1113 3116 1747 
z
" transform="scale(0.015625)"/>
       <path id="DejaVuSans-61" d="M 2194 1759 
Q 1497 1759 1228 1600 
Q 959 1441 959 1056 
Q 959 750 1161 570 
Q 1363 391 1709 391 
Q 2188 391 2477 730 
Q 2766 1069 2766 1631 
L 2766 1759 
L 2194 1759 
z
M 3341 1997 
L 3341 0 
L 2766 0 
L 2766 531 
Q 2569 213 2275 61 
Q 1981 -91 1556 -91 
Q 1019 -91 701 211 
Q 384 513 384 1019 
Q 384 1609 779 1909 
Q 1175 2209 1959 2209 
L 2766 2209 
L 2766 2266 
Q 2766 2663 2505 2880 
Q 2244 3097 1772 3097 
Q 1472 3097 1187 3025 
Q 903 2953 641 2809 
L 641 3341 
Q 956 3463 1253 3523 
Q 1550 3584 1831 3584 
Q 2591 3584 2966 3190 
Q 3341 2797 3341 1997 
z
" transform="scale(0.015625)"/>
       <path id="DejaVuSans-6d" d="M 3328 2828 
Q 3544 3216 3844 3400 
Q 4144 3584 4550 3584 
Q 5097 3584 5394 3201 
Q 5691 2819 5691 2113 
L 5691 0 
L 5113 0 
L 5113 2094 
Q 5113 2597 4934 2840 
Q 4756 3084 4391 3084 
Q 3944 3084 3684 2787 
Q 3425 2491 3425 1978 
L 3425 0 
L 2847 0 
L 2847 2094 
Q 2847 2600 2669 2842 
Q 2491 3084 2119 3084 
Q 1678 3084 1418 2786 
Q 1159 2488 1159 1978 
L 1159 0 
L 581 0 
L 581 3500 
L 1159 3500 
L 1159 2956 
Q 1356 3278 1631 3431 
Q 1906 3584 2284 3584 
Q 2666 3584 2933 3390 
Q 3200 3197 3328 2828 
z
" transform="scale(0.015625)"/>
       <path id="DejaVuSans-75" d="M 544 1381 
L 544 3500 
L 1119 3500 
L 1119 1403 
Q 1119 906 1312 657 
Q 1506 409 1894 409 
Q 2359 409 2629 706 
Q 2900 1003 2900 1516 
L 2900 3500 
L 3475 3500 
L 3475 0 
L 2900 0 
L 2900 538 
Q 2691 219 2414 64 
Q 2138 -91 1772 -91 
Q 1169 -91 856 284 
Q 544 659 544 1381 
z
M 1991 3584 
L 1991 3584 
z
" transform="scale(0.015625)"/>
      </defs>
      <use xlink:href="#DejaVuSans-48"/>
      <use xlink:href="#DejaVuSans-6f" x="75.195312"/>
      <use xlink:href="#DejaVuSans-64" x="136.376953"/>
      <use xlink:href="#DejaVuSans-6e" x="199.853516"/>
      <use xlink:href="#DejaVuSans-6f" x="263.232422"/>
      <use xlink:href="#DejaVuSans-74" x="324.414062"/>
      <use xlink:href="#DejaVuSans-79" x="363.623047"/>
      <use xlink:href="#DejaVuSans-20" x="422.802734"/>
      <use xlink:href="#DejaVuSans-70" x="454.589844"/>
      <use xlink:href="#DejaVuSans-61" x="518.066406"/>
      <use xlink:href="#DejaVuSans-72" x="579.345703"/>
      <use xlink:href="#DejaVuSans-61" x="620.458984"/>
      <use xlink:href="#DejaVuSans-6d" x="681.738281"/>
      <use xlink:href="#DejaVuSans-65" x="779.150391"/>
      <use xlink:href="#DejaVuSans-74" x="840.673828"/>
      <use xlink:href="#DejaVuSans-72" x="879.882812"/>
      <use xlink:href="#DejaVuSans-75" x="920.996094"/>
     </g>
    </g>
    <g id="line2d_22">
     <path d="M 331.367656 248.969937 
L 341.367656 248.969937 
L 351.367656 248.969937 
" style="fill: none; stroke: #1f77b4; stroke-width: 1.5; stroke-linecap: square"/>
    </g>
    <g id="text_22">
     <!-- 0.25 -->
     <g transform="translate(359.367656 252.469937) scale(0.1 -0.1)">
      <defs>
       <path id="DejaVuSans-2e" d="M 684 794 
L 1344 794 
L 1344 0 
L 684 0 
L 684 794 
z
" transform="scale(0.015625)"/>
       <path id="DejaVuSans-35" d="M 691 4666 
L 3169 4666 
L 3169 4134 
L 1269 4134 
L 1269 2991 
Q 1406 3038 1543 3061 
Q 1681 3084 1819 3084 
Q 2600 3084 3056 2656 
Q 3513 2228 3513 1497 
Q 3513 744 3044 326 
Q 2575 -91 1722 -91 
Q 1428 -91 1123 -41 
Q 819 9 494 109 
L 494 744 
Q 775 591 1075 516 
Q 1375 441 1709 441 
Q 2250 441 2565 725 
Q 2881 1009 2881 1497 
Q 2881 1984 2565 2268 
Q 2250 2553 1709 2553 
Q 1456 2553 1204 2497 
Q 953 2441 691 2322 
L 691 4666 
z
" transform="scale(0.015625)"/>
      </defs>
      <use xlink:href="#DejaVuSans-30"/>
      <use xlink:href="#DejaVuSans-2e" x="63.623047"/>
      <use xlink:href="#DejaVuSans-32" x="95.410156"/>
      <use xlink:href="#DejaVuSans-35" x="159.033203"/>
     </g>
    </g>
    <g id="line2d_23">
     <path d="M 331.367656 263.648062 
L 341.367656 263.648062 
L 351.367656 263.648062 
" style="fill: none; stroke: #ff7f0e; stroke-width: 1.5; stroke-linecap: square"/>
    </g>
    <g id="text_23">
     <!-- 0.5 -->
     <g transform="translate(359.367656 267.148062) scale(0.1 -0.1)">
      <use xlink:href="#DejaVuSans-30"/>
      <use xlink:href="#DejaVuSans-2e" x="63.623047"/>
      <use xlink:href="#DejaVuSans-35" x="95.410156"/>
     </g>
    </g>
    <g id="line2d_24">
     <path d="M 331.367656 278.326188 
L 341.367656 278.326188 
L 351.367656 278.326188 
" style="fill: none; stroke: #2ca02c; stroke-width: 1.5; stroke-linecap: square"/>
    </g>
    <g id="text_24">
     <!-- 1 -->
     <g transform="translate(359.367656 281.826188) scale(0.1 -0.1)">
      <use xlink:href="#DejaVuSans-31"/>
     </g>
    </g>
    <g id="line2d_25">
     <path d="M 331.367656 293.004312 
L 341.367656 293.004312 
L 351.367656 293.004312 
" style="fill: none; stroke: #d62728; stroke-width: 1.5; stroke-linecap: square"/>
    </g>
    <g id="text_25">
     <!-- 2 -->
     <g transform="translate(359.367656 296.504312) scale(0.1 -0.1)">
      <use xlink:href="#DejaVuSans-32"/>
     </g>
    </g>
   </g>
  </g>
 </g>
 <defs>
  <clipPath id="p9e86d9922e">
   <rect x="57.6" y="41.472" width="357.12" height="266.112"/>
  </clipPath>
 </defs>
</svg>
