<?xml version="1.0" encoding="utf-8" standalone="no"?>
<!DOCTYPE svg PUBLIC "-//W3C//DTD SVG 1.1//EN"
  "http://www.w3.org/Graphics/SVG/1.1/DTD/svg11.dtd">
<svg xmlns:xlink="http://www.w3.org/1999/xlink" width="460.8pt" height="345.6pt" viewBox="0 0 460.8 345.6" xmlns="http://www.w3.org/2000/svg" version="1.1">
 <metadata>
  <rdf:RDF xmlns:dc="http://purl.org/dc/elements/1.1/" xmlns:cc="http://creativecommons.org/ns#" xmlns:rdf="http://www.w3.org/1999/02/22-rdf-syntax-ns#">
   <cc:Work>
    <dc:type rdf:resource="http://purl.org/dc/dcmitype/StillImage"/>
    <dc:date>2023-09-30T06:35:17.657134</dc:date>
    <dc:format>image/svg+xml</dc:format>
    <dc:creator>
     <cc:Agent>
      <dc:title>Matplotlib v3.7.1, https://matplotlib.org/</dc:title>
     </cc:Agent>
    </dc:creator>
   </cc:Work>
  </rdf:RDF>
 </metadata>
 <defs>
  <style type="text/css">*{stroke-linejoin: round; stroke-linecap: butt}</style>
 </defs>
 <g id="figure_1">
  <g id="patch_1">
   <path d="M 0 345.6 
L 460.8 345.6 
L 460.8 0 
L 0 0 
z
" style="fill: #ffffff"/>
  </g>
  <g id="axes_1">
   <g id="patch_2">
    <path d="M 57.6 307.584 
L 414.72 307.584 
L 414.72 41.472 
L 57.6 41.472 
z
" style="fill: #ffffff"/>
   </g>
   <g id="matplotlib.axis_1">
    <g id="xtick_1">
     <g id="line2d_1">
      <defs>
       <path id="md38cb12c80" d="M 0 0 
L 0 3.5 
" style="stroke: #000000; stroke-width: 0.8"/>
      </defs>
      <g>
       <use xlink:href="#md38cb12c80" x="73.832727" y="307.584" style="stroke: #000000; stroke-width: 0.8"/>
      </g>
     </g>
     <g id="text_1">
      <!-- 0 -->
      <g transform="translate(70.651477 322.182437) scale(0.1 -0.1)">
       <defs>
        <path id="DejaVuSans-30" d="M 2034 4250 
Q 1547 4250 1301 3770 
Q 1056 3291 1056 2328 
Q 1056 1369 1301 889 
Q 1547 409 2034 409 
Q 2525 409 2770 889 
Q 3016 1369 3016 2328 
Q 3016 3291 2770 3770 
Q 2525 4250 2034 4250 
z
M 2034 4750 
Q 2819 4750 3233 4129 
Q 3647 3509 3647 2328 
Q 3647 1150 3233 529 
Q 2819 -91 2034 -91 
Q 1250 -91 836 529 
Q 422 1150 422 2328 
Q 422 3509 836 4129 
Q 1250 4750 2034 4750 
z
" transform="scale(0.015625)"/>
       </defs>
       <use xlink:href="#DejaVuSans-30"/>
      </g>
     </g>
    </g>
    <g id="xtick_2">
     <g id="line2d_2">
      <g>
       <use xlink:href="#md38cb12c80" x="138.763636" y="307.584" style="stroke: #000000; stroke-width: 0.8"/>
      </g>
     </g>
     <g id="text_2">
      <!-- 1 -->
      <g transform="translate(135.582386 322.182437) scale(0.1 -0.1)">
       <defs>
        <path id="DejaVuSans-31" d="M 794 531 
L 1825 531 
L 1825 4091 
L 703 3866 
L 703 4441 
L 1819 4666 
L 2450 4666 
L 2450 531 
L 3481 531 
L 3481 0 
L 794 0 
L 794 531 
z
" transform="scale(0.015625)"/>
       </defs>
       <use xlink:href="#DejaVuSans-31"/>
      </g>
     </g>
    </g>
    <g id="xtick_3">
     <g id="line2d_3">
      <g>
       <use xlink:href="#md38cb12c80" x="203.694545" y="307.584" style="stroke: #000000; stroke-width: 0.8"/>
      </g>
     </g>
     <g id="text_3">
      <!-- 2 -->
      <g transform="translate(200.513295 322.182437) scale(0.1 -0.1)">
       <defs>
        <path id="DejaVuSans-32" d="M 1228 531 
L 3431 531 
L 3431 0 
L 469 0 
L 469 531 
Q 828 903 1448 1529 
Q 2069 2156 2228 2338 
Q 2531 2678 2651 2914 
Q 2772 3150 2772 3378 
Q 2772 3750 2511 3984 
Q 2250 4219 1831 4219 
Q 1534 4219 1204 4116 
Q 875 4013 500 3803 
L 500 4441 
Q 881 4594 1212 4672 
Q 1544 4750 1819 4750 
Q 2544 4750 2975 4387 
Q 3406 4025 3406 3419 
Q 3406 3131 3298 2873 
Q 3191 2616 2906 2266 
Q 2828 2175 2409 1742 
Q 1991 1309 1228 531 
z
" transform="scale(0.015625)"/>
       </defs>
       <use xlink:href="#DejaVuSans-32"/>
      </g>
     </g>
    </g>
    <g id="xtick_4">
     <g id="line2d_4">
      <g>
       <use xlink:href="#md38cb12c80" x="268.625455" y="307.584" style="stroke: #000000; stroke-width: 0.8"/>
      </g>
     </g>
     <g id="text_4">
      <!-- 3 -->
      <g transform="translate(265.444205 322.182437) scale(0.1 -0.1)">
       <defs>
        <path id="DejaVuSans-33" d="M 2597 2516 
Q 3050 2419 3304 2112 
Q 3559 1806 3559 1356 
Q 3559 666 3084 287 
Q 2609 -91 1734 -91 
Q 1441 -91 1130 -33 
Q 819 25 488 141 
L 488 750 
Q 750 597 1062 519 
Q 1375 441 1716 441 
Q 2309 441 2620 675 
Q 2931 909 2931 1356 
Q 2931 1769 2642 2001 
Q 2353 2234 1838 2234 
L 1294 2234 
L 1294 2753 
L 1863 2753 
Q 2328 2753 2575 2939 
Q 2822 3125 2822 3475 
Q 2822 3834 2567 4026 
Q 2313 4219 1838 4219 
Q 1578 4219 1281 4162 
Q 984 4106 628 3988 
L 628 4550 
Q 988 4650 1302 4700 
Q 1616 4750 1894 4750 
Q 2613 4750 3031 4423 
Q 3450 4097 3450 3541 
Q 3450 3153 3228 2886 
Q 3006 2619 2597 2516 
z
" transform="scale(0.015625)"/>
       </defs>
       <use xlink:href="#DejaVuSans-33"/>
      </g>
     </g>
    </g>
    <g id="xtick_5">
     <g id="line2d_5">
      <g>
       <use xlink:href="#md38cb12c80" x="333.556364" y="307.584" style="stroke: #000000; stroke-width: 0.8"/>
      </g>
     </g>
     <g id="text_5">
      <!-- 4 -->
      <g transform="translate(330.375114 322.182437) scale(0.1 -0.1)">
       <defs>
        <path id="DejaVuSans-34" d="M 2419 4116 
L 825 1625 
L 2419 1625 
L 2419 4116 
z
M 2253 4666 
L 3047 4666 
L 3047 1625 
L 3713 1625 
L 3713 1100 
L 3047 1100 
L 3047 0 
L 2419 0 
L 2419 1100 
L 313 1100 
L 313 1709 
L 2253 4666 
z
" transform="scale(0.015625)"/>
       </defs>
       <use xlink:href="#DejaVuSans-34"/>
      </g>
     </g>
    </g>
    <g id="xtick_6">
     <g id="line2d_6">
      <g>
       <use xlink:href="#md38cb12c80" x="398.487273" y="307.584" style="stroke: #000000; stroke-width: 0.8"/>
      </g>
     </g>
     <g id="text_6">
      <!-- 5 -->
      <g transform="translate(395.306023 322.182437) scale(0.1 -0.1)">
       <defs>
        <path id="DejaVuSans-35" d="M 691 4666 
L 3169 4666 
L 3169 4134 
L 1269 4134 
L 1269 2991 
Q 1406 3038 1543 3061 
Q 1681 3084 1819 3084 
Q 2600 3084 3056 2656 
Q 3513 2228 3513 1497 
Q 3513 744 3044 326 
Q 2575 -91 1722 -91 
Q 1428 -91 1123 -41 
Q 819 9 494 109 
L 494 744 
Q 775 591 1075 516 
Q 1375 441 1709 441 
Q 2250 441 2565 725 
Q 2881 1009 2881 1497 
Q 2881 1984 2565 2268 
Q 2250 2553 1709 2553 
Q 1456 2553 1204 2497 
Q 953 2441 691 2322 
L 691 4666 
z
" transform="scale(0.015625)"/>
       </defs>
       <use xlink:href="#DejaVuSans-35"/>
      </g>
     </g>
    </g>
   </g>
   <g id="matplotlib.axis_2">
    <g id="ytick_1">
     <g id="line2d_7">
      <defs>
       <path id="md7a0b8c370" d="M 0 0 
L -3.5 0 
" style="stroke: #000000; stroke-width: 0.8"/>
      </defs>
      <g>
       <use xlink:href="#md7a0b8c370" x="57.6" y="295.488" style="stroke: #000000; stroke-width: 0.8"/>
      </g>
     </g>
     <g id="text_7">
      <!-- 0.0 -->
      <g transform="translate(34.696875 299.287219) scale(0.1 -0.1)">
       <defs>
        <path id="DejaVuSans-2e" d="M 684 794 
L 1344 794 
L 1344 0 
L 684 0 
L 684 794 
z
" transform="scale(0.015625)"/>
       </defs>
       <use xlink:href="#DejaVuSans-30"/>
       <use xlink:href="#DejaVuSans-2e" x="63.623047"/>
       <use xlink:href="#DejaVuSans-30" x="95.410156"/>
      </g>
     </g>
    </g>
    <g id="ytick_2">
     <g id="line2d_8">
      <g>
       <use xlink:href="#md7a0b8c370" x="57.6" y="237.4272" style="stroke: #000000; stroke-width: 0.8"/>
      </g>
     </g>
     <g id="text_8">
      <!-- 0.2 -->
      <g transform="translate(34.696875 241.226419) scale(0.1 -0.1)">
       <use xlink:href="#DejaVuSans-30"/>
       <use xlink:href="#DejaVuSans-2e" x="63.623047"/>
       <use xlink:href="#DejaVuSans-32" x="95.410156"/>
      </g>
     </g>
    </g>
    <g id="ytick_3">
     <g id="line2d_9">
      <g>
       <use xlink:href="#md7a0b8c370" x="57.6" y="179.3664" style="stroke: #000000; stroke-width: 0.8"/>
      </g>
     </g>
     <g id="text_9">
      <!-- 0.4 -->
      <g transform="translate(34.696875 183.165619) scale(0.1 -0.1)">
       <use xlink:href="#DejaVuSans-30"/>
       <use xlink:href="#DejaVuSans-2e" x="63.623047"/>
       <use xlink:href="#DejaVuSans-34" x="95.410156"/>
      </g>
     </g>
    </g>
    <g id="ytick_4">
     <g id="line2d_10">
      <g>
       <use xlink:href="#md7a0b8c370" x="57.6" y="121.3056" style="stroke: #000000; stroke-width: 0.8"/>
      </g>
     </g>
     <g id="text_10">
      <!-- 0.6 -->
      <g transform="translate(34.696875 125.104819) scale(0.1 -0.1)">
       <defs>
        <path id="DejaVuSans-36" d="M 2113 2584 
Q 1688 2584 1439 2293 
Q 1191 2003 1191 1497 
Q 1191 994 1439 701 
Q 1688 409 2113 409 
Q 2538 409 2786 701 
Q 3034 994 3034 1497 
Q 3034 2003 2786 2293 
Q 2538 2584 2113 2584 
z
M 3366 4563 
L 3366 3988 
Q 3128 4100 2886 4159 
Q 2644 4219 2406 4219 
Q 1781 4219 1451 3797 
Q 1122 3375 1075 2522 
Q 1259 2794 1537 2939 
Q 1816 3084 2150 3084 
Q 2853 3084 3261 2657 
Q 3669 2231 3669 1497 
Q 3669 778 3244 343 
Q 2819 -91 2113 -91 
Q 1303 -91 875 529 
Q 447 1150 447 2328 
Q 447 3434 972 4092 
Q 1497 4750 2381 4750 
Q 2619 4750 2861 4703 
Q 3103 4656 3366 4563 
z
" transform="scale(0.015625)"/>
       </defs>
       <use xlink:href="#DejaVuSans-30"/>
       <use xlink:href="#DejaVuSans-2e" x="63.623047"/>
       <use xlink:href="#DejaVuSans-36" x="95.410156"/>
      </g>
     </g>
    </g>
    <g id="ytick_5">
     <g id="line2d_11">
      <g>
       <use xlink:href="#md7a0b8c370" x="57.6" y="63.2448" style="stroke: #000000; stroke-width: 0.8"/>
      </g>
     </g>
     <g id="text_11">
      <!-- 0.8 -->
      <g transform="translate(34.696875 67.044019) scale(0.1 -0.1)">
       <defs>
        <path id="DejaVuSans-38" d="M 2034 2216 
Q 1584 2216 1326 1975 
Q 1069 1734 1069 1313 
Q 1069 891 1326 650 
Q 1584 409 2034 409 
Q 2484 409 2743 651 
Q 3003 894 3003 1313 
Q 3003 1734 2745 1975 
Q 2488 2216 2034 2216 
z
M 1403 2484 
Q 997 2584 770 2862 
Q 544 3141 544 3541 
Q 544 4100 942 4425 
Q 1341 4750 2034 4750 
Q 2731 4750 3128 4425 
Q 3525 4100 3525 3541 
Q 3525 3141 3298 2862 
Q 3072 2584 2669 2484 
Q 3125 2378 3379 2068 
Q 3634 1759 3634 1313 
Q 3634 634 3220 271 
Q 2806 -91 2034 -91 
Q 1263 -91 848 271 
Q 434 634 434 1313 
Q 434 1759 690 2068 
Q 947 2378 1403 2484 
z
M 1172 3481 
Q 1172 3119 1398 2916 
Q 1625 2713 2034 2713 
Q 2441 2713 2670 2916 
Q 2900 3119 2900 3481 
Q 2900 3844 2670 4047 
Q 2441 4250 2034 4250 
Q 1625 4250 1398 4047 
Q 1172 3844 1172 3481 
z
" transform="scale(0.015625)"/>
       </defs>
       <use xlink:href="#DejaVuSans-30"/>
       <use xlink:href="#DejaVuSans-2e" x="63.623047"/>
       <use xlink:href="#DejaVuSans-38" x="95.410156"/>
      </g>
     </g>
    </g>
   </g>
   <g id="line2d_12">
    <path d="M 73.832727 295.488 
L 80.45833 268.608 
L 87.083933 246.283932 
L 93.709536 227.448 
L 100.335139 211.341913 
L 106.960742 197.412324 
L 113.586345 185.245975 
L 120.211948 174.528 
L 126.837551 165.014292 
L 133.463154 156.512681 
L 140.088757 148.869818 
L 146.71436 141.961846 
L 153.339963 135.687633 
L 159.965566 129.963789 
L 166.591169 124.720941 
L 173.216772 119.900903 
L 179.842375 115.454512 
L 186.467978 111.33994 
L 193.093581 107.521381 
L 199.719184 103.968 
L 206.344787 100.653101 
L 212.97039 97.553455 
L 219.595993 94.648755 
L 226.221596 91.921171 
L 232.847199 89.354982 
L 239.472801 86.936276 
L 246.098404 84.652693 
L 252.724007 82.493217 
L 259.34961 80.448 
L 265.975213 78.508206 
L 272.600816 76.665889 
L 279.226419 74.913882 
L 285.852022 73.245703 
L 292.477625 71.655477 
L 299.103228 70.137863 
L 305.728831 68.688 
L 312.354434 67.30145 
L 318.980037 65.974154 
L 325.60564 64.702393 
L 332.231243 63.482754 
L 338.856846 62.312096 
L 345.482449 61.187528 
L 352.108052 60.106378 
L 358.733655 59.066182 
L 365.359258 58.064654 
L 371.984861 57.099679 
L 378.610464 56.16929 
L 385.236067 55.271662 
L 391.86167 54.405093 
L 398.487273 53.568 
" clip-path="url(#pbce43406eb)" style="fill: none; stroke: #1f77b4; stroke-width: 1.5; stroke-linecap: square"/>
   </g>
   <g id="line2d_13">
    <path d="M 73.832727 295.488 
L 80.45833 279.913751 
L 87.083933 265.925475 
L 93.709536 253.292651 
L 100.335139 241.827372 
L 106.960742 231.374926 
L 113.586345 221.806782 
L 120.211948 213.015273 
L 126.837551 204.909529 
L 133.463154 197.412324 
L 140.088757 190.457609 
L 146.71436 183.988559 
L 153.339963 177.956016 
L 159.965566 172.317243 
L 166.591169 167.034903 
L 173.216772 162.076235 
L 179.842375 157.412376 
L 186.467978 153.017792 
L 193.093581 148.869818 
L 199.719184 144.948262 
L 206.344787 141.235078 
L 212.97039 137.714087 
L 219.595993 134.370745 
L 226.221596 131.191937 
L 232.847199 128.16581 
L 239.472801 125.281621 
L 246.098404 122.529613 
L 252.724007 119.900903 
L 259.34961 117.387387 
L 265.975213 114.981654 
L 272.600816 112.676917 
L 279.226419 110.466947 
L 285.852022 108.346018 
L 292.477625 106.308853 
L 299.103228 104.350587 
L 305.728831 102.466723 
L 312.354434 100.653101 
L 318.980037 98.905862 
L 325.60564 97.221429 
L 332.231243 95.596475 
L 338.856846 94.027903 
L 345.482449 92.512829 
L 352.108052 91.048563 
L 358.733655 89.632591 
L 365.359258 88.262562 
L 371.984861 86.936276 
L 378.610464 85.651671 
L 385.236067 84.406812 
L 391.86167 83.199883 
L 398.487273 82.029176 
" clip-path="url(#pbce43406eb)" style="fill: none; stroke: #ff7f0e; stroke-width: 1.5; stroke-linecap: square"/>
   </g>
   <g id="line2d_14">
    <path d="M 73.832727 295.488 
L 80.45833 284.524858 
L 87.083933 274.359616 
L 93.709536 264.908225 
L 100.335139 256.098041 
L 106.960742 247.865953 
L 113.586345 240.156869 
L 120.211948 232.922483 
L 126.837551 226.120258 
L 133.463154 219.712594 
L 140.088757 213.666129 
L 146.71436 207.951158 
L 153.339963 202.541148 
L 159.965566 197.412324 
L 166.591169 192.543319 
L 173.216772 187.914877 
L 179.842375 183.509601 
L 186.467978 179.311729 
L 193.093581 175.306951 
L 199.719184 171.482245 
L 206.344787 167.825731 
L 212.97039 164.326554 
L 219.595993 160.974773 
L 226.221596 157.761267 
L 232.847199 154.677652 
L 239.472801 151.716209 
L 246.098404 148.869818 
L 252.724007 146.131902 
L 259.34961 143.496377 
L 265.975213 140.957604 
L 272.600816 138.51035 
L 279.226419 136.149756 
L 285.852022 133.871299 
L 292.477625 131.670763 
L 299.103228 129.544221 
L 305.728831 127.488 
L 312.354434 125.49867 
L 318.980037 123.573019 
L 325.60564 121.708038 
L 332.231243 119.900903 
L 338.856846 118.148965 
L 345.482449 116.449733 
L 352.108052 114.800863 
L 358.733655 113.20015 
L 365.359258 111.645513 
L 371.984861 110.134992 
L 378.610464 108.666735 
L 385.236067 107.238993 
L 391.86167 105.850112 
L 398.487273 104.498526 
" clip-path="url(#pbce43406eb)" style="fill: none; stroke: #2ca02c; stroke-width: 1.5; stroke-linecap: square"/>
   </g>
   <g id="line2d_15">
    <path d="M 73.832727 295.488 
L 80.45833 287.029259 
L 87.083933 279.049495 
L 93.709536 271.509145 
L 100.335139 264.372887 
L 106.960742 257.609086 
L 113.586345 251.189322 
L 120.211948 245.088 
L 126.837551 239.281998 
L 133.463154 233.750382 
L 140.088757 228.47415 
L 146.71436 223.436014 
L 153.339963 218.620215 
L 159.965566 214.012352 
L 166.591169 209.599243 
L 173.216772 205.368795 
L 179.842375 201.309898 
L 186.467978 197.412324 
L 193.093581 193.666644 
L 199.719184 190.064147 
L 206.344787 186.596777 
L 212.97039 183.257072 
L 219.595993 180.038108 
L 226.221596 176.933455 
L 232.847199 173.937128 
L 239.472801 171.043556 
L 246.098404 168.247541 
L 252.724007 165.544233 
L 259.34961 162.929096 
L 265.975213 160.397884 
L 272.600816 157.946623 
L 279.226419 155.571582 
L 285.852022 153.269261 
L 292.477625 151.036372 
L 299.103228 148.869818 
L 305.728831 146.766689 
L 312.354434 144.724238 
L 318.980037 142.739877 
L 325.60564 140.811163 
L 332.231243 138.935788 
L 338.856846 137.111568 
L 345.482449 135.336439 
L 352.108052 133.608446 
L 358.733655 131.925736 
L 365.359258 130.286551 
L 371.984861 128.689226 
L 378.610464 127.132175 
L 385.236067 125.613896 
L 391.86167 124.132958 
L 398.487273 122.688 
" clip-path="url(#pbce43406eb)" style="fill: none; stroke: #d62728; stroke-width: 1.5; stroke-linecap: square"/>
   </g>
   <g id="line2d_16">
    <path d="M 73.832727 295.488 
L 80.45833 288.602231 
L 87.083933 282.035544 
L 93.709536 275.766261 
L 100.335139 269.774625 
L 106.960742 264.042593 
L 113.586345 258.553649 
L 120.211948 253.292651 
L 126.837551 248.245689 
L 133.463154 243.399962 
L 140.088757 238.743668 
L 146.71436 234.265914 
L 153.339963 229.956623 
L 159.965566 225.806464 
L 166.591169 221.806782 
L 173.216772 217.949538 
L 179.842375 214.227258 
L 186.467978 210.632979 
L 193.093581 207.160211 
L 199.719184 203.802894 
L 206.344787 200.555364 
L 212.97039 197.412324 
L 219.595993 194.368811 
L 226.221596 191.42017 
L 232.847199 188.562033 
L 239.472801 185.790297 
L 246.098404 183.101103 
L 252.724007 180.490817 
L 259.34961 177.956016 
L 265.975213 175.493473 
L 272.600816 173.100142 
L 279.226419 170.773144 
L 285.852022 168.509761 
L 292.477625 166.307417 
L 299.103228 164.163679 
L 305.728831 162.076235 
L 312.354434 160.042899 
L 318.980037 158.061593 
L 325.60564 156.130345 
L 332.231243 154.247281 
L 338.856846 152.410622 
L 345.482449 150.618672 
L 352.108052 148.869818 
L 358.733655 147.162525 
L 365.359258 145.495327 
L 371.984861 143.86683 
L 378.610464 142.275701 
L 385.236067 140.720668 
L 391.86167 139.200517 
L 398.487273 137.714087 
" clip-path="url(#pbce43406eb)" style="fill: none; stroke: #9467bd; stroke-width: 1.5; stroke-linecap: square"/>
   </g>
   <g id="line2d_17">
    <path d="M 73.832727 295.488 
L 80.45833 289.68192 
L 87.083933 284.103529 
L 93.709536 278.739692 
L 100.335139 273.578264 
L 106.960742 268.608 
L 113.586345 263.818473 
L 120.211948 259.2 
L 126.837551 254.743579 
L 133.463154 250.440828 
L 140.088757 246.283932 
L 146.71436 242.2656 
L 153.339963 238.379016 
L 159.965566 234.617806 
L 166.591169 230.976 
L 173.216772 227.448 
L 179.842375 224.028554 
L 186.467978 220.712727 
L 193.093581 217.495881 
L 199.719184 214.373647 
L 206.344787 211.341913 
L 212.97039 208.3968 
L 219.595993 205.534648 
L 226.221596 202.752 
L 232.847199 200.045589 
L 239.472801 197.412324 
L 246.098404 194.84928 
L 252.724007 192.353684 
L 259.34961 189.922909 
L 265.975213 187.554462 
L 272.600816 185.245975 
L 279.226419 182.9952 
L 285.852022 180.8 
L 292.477625 178.658341 
L 299.103228 176.568289 
L 305.728831 174.528 
L 312.354434 172.535718 
L 318.980037 170.589767 
L 325.60564 168.688552 
L 332.231243 166.830545 
L 338.856846 165.014292 
L 345.482449 163.2384 
L 352.108052 161.501538 
L 358.733655 159.802435 
L 365.359258 158.139871 
L 371.984861 156.512681 
L 378.610464 154.919747 
L 385.236067 153.36 
L 391.86167 151.832412 
L 398.487273 150.336 
" clip-path="url(#pbce43406eb)" style="fill: none; stroke: #8c564b; stroke-width: 1.5; stroke-linecap: square"/>
   </g>
   <g id="patch_3">
    <path d="M 57.6 307.584 
L 57.6 41.472 
" style="fill: none; stroke: #000000; stroke-width: 0.8; stroke-linejoin: miter; stroke-linecap: square"/>
   </g>
   <g id="patch_4">
    <path d="M 414.72 307.584 
L 414.72 41.472 
" style="fill: none; stroke: #000000; stroke-width: 0.8; stroke-linejoin: miter; stroke-linecap: square"/>
   </g>
   <g id="patch_5">
    <path d="M 57.6 307.584 
L 414.72 307.584 
" style="fill: none; stroke: #000000; stroke-width: 0.8; stroke-linejoin: miter; stroke-linecap: square"/>
   </g>
   <g id="patch_6">
    <path d="M 57.6 41.472 
L 414.72 41.472 
" style="fill: none; stroke: #000000; stroke-width: 0.8; stroke-linejoin: miter; stroke-linecap: square"/>
   </g>
   <g id="text_12">
    <!-- Trofická funkce Holling II -->
    <g transform="translate(163.014375 35.472) scale(0.12 -0.12)">
     <defs>
      <path id="DejaVuSans-54" d="M -19 4666 
L 3928 4666 
L 3928 4134 
L 2272 4134 
L 2272 0 
L 1638 0 
L 1638 4134 
L -19 4134 
L -19 4666 
z
" transform="scale(0.015625)"/>
      <path id="DejaVuSans-72" d="M 2631 2963 
Q 2534 3019 2420 3045 
Q 2306 3072 2169 3072 
Q 1681 3072 1420 2755 
Q 1159 2438 1159 1844 
L 1159 0 
L 581 0 
L 581 3500 
L 1159 3500 
L 1159 2956 
Q 1341 3275 1631 3429 
Q 1922 3584 2338 3584 
Q 2397 3584 2469 3576 
Q 2541 3569 2628 3553 
L 2631 2963 
z
" transform="scale(0.015625)"/>
      <path id="DejaVuSans-6f" d="M 1959 3097 
Q 1497 3097 1228 2736 
Q 959 2375 959 1747 
Q 959 1119 1226 758 
Q 1494 397 1959 397 
Q 2419 397 2687 759 
Q 2956 1122 2956 1747 
Q 2956 2369 2687 2733 
Q 2419 3097 1959 3097 
z
M 1959 3584 
Q 2709 3584 3137 3096 
Q 3566 2609 3566 1747 
Q 3566 888 3137 398 
Q 2709 -91 1959 -91 
Q 1206 -91 779 398 
Q 353 888 353 1747 
Q 353 2609 779 3096 
Q 1206 3584 1959 3584 
z
" transform="scale(0.015625)"/>
      <path id="DejaVuSans-66" d="M 2375 4863 
L 2375 4384 
L 1825 4384 
Q 1516 4384 1395 4259 
Q 1275 4134 1275 3809 
L 1275 3500 
L 2222 3500 
L 2222 3053 
L 1275 3053 
L 1275 0 
L 697 0 
L 697 3053 
L 147 3053 
L 147 3500 
L 697 3500 
L 697 3744 
Q 697 4328 969 4595 
Q 1241 4863 1831 4863 
L 2375 4863 
z
" transform="scale(0.015625)"/>
      <path id="DejaVuSans-69" d="M 603 3500 
L 1178 3500 
L 1178 0 
L 603 0 
L 603 3500 
z
M 603 4863 
L 1178 4863 
L 1178 4134 
L 603 4134 
L 603 4863 
z
" transform="scale(0.015625)"/>
      <path id="DejaVuSans-63" d="M 3122 3366 
L 3122 2828 
Q 2878 2963 2633 3030 
Q 2388 3097 2138 3097 
Q 1578 3097 1268 2742 
Q 959 2388 959 1747 
Q 959 1106 1268 751 
Q 1578 397 2138 397 
Q 2388 397 2633 464 
Q 2878 531 3122 666 
L 3122 134 
Q 2881 22 2623 -34 
Q 2366 -91 2075 -91 
Q 1284 -91 818 406 
Q 353 903 353 1747 
Q 353 2603 823 3093 
Q 1294 3584 2113 3584 
Q 2378 3584 2631 3529 
Q 2884 3475 3122 3366 
z
" transform="scale(0.015625)"/>
      <path id="DejaVuSans-6b" d="M 581 4863 
L 1159 4863 
L 1159 1991 
L 2875 3500 
L 3609 3500 
L 1753 1863 
L 3688 0 
L 2938 0 
L 1159 1709 
L 1159 0 
L 581 0 
L 581 4863 
z
" transform="scale(0.015625)"/>
      <path id="DejaVuSans-e1" d="M 2194 1759 
Q 1497 1759 1228 1600 
Q 959 1441 959 1056 
Q 959 750 1161 570 
Q 1363 391 1709 391 
Q 2188 391 2477 730 
Q 2766 1069 2766 1631 
L 2766 1759 
L 2194 1759 
z
M 3341 1997 
L 3341 0 
L 2766 0 
L 2766 531 
Q 2569 213 2275 61 
Q 1981 -91 1556 -91 
Q 1019 -91 701 211 
Q 384 513 384 1019 
Q 384 1609 779 1909 
Q 1175 2209 1959 2209 
L 2766 2209 
L 2766 2266 
Q 2766 2663 2505 2880 
Q 2244 3097 1772 3097 
Q 1472 3097 1187 3025 
Q 903 2953 641 2809 
L 641 3341 
Q 956 3463 1253 3523 
Q 1550 3584 1831 3584 
Q 2591 3584 2966 3190 
Q 3341 2797 3341 1997 
z
M 2291 5119 
L 2913 5119 
L 1894 3944 
L 1416 3944 
L 2291 5119 
z
" transform="scale(0.015625)"/>
      <path id="DejaVuSans-20" transform="scale(0.015625)"/>
      <path id="DejaVuSans-75" d="M 544 1381 
L 544 3500 
L 1119 3500 
L 1119 1403 
Q 1119 906 1312 657 
Q 1506 409 1894 409 
Q 2359 409 2629 706 
Q 2900 1003 2900 1516 
L 2900 3500 
L 3475 3500 
L 3475 0 
L 2900 0 
L 2900 538 
Q 2691 219 2414 64 
Q 2138 -91 1772 -91 
Q 1169 -91 856 284 
Q 544 659 544 1381 
z
M 1991 3584 
L 1991 3584 
z
" transform="scale(0.015625)"/>
      <path id="DejaVuSans-6e" d="M 3513 2113 
L 3513 0 
L 2938 0 
L 2938 2094 
Q 2938 2591 2744 2837 
Q 2550 3084 2163 3084 
Q 1697 3084 1428 2787 
Q 1159 2491 1159 1978 
L 1159 0 
L 581 0 
L 581 3500 
L 1159 3500 
L 1159 2956 
Q 1366 3272 1645 3428 
Q 1925 3584 2291 3584 
Q 2894 3584 3203 3211 
Q 3513 2838 3513 2113 
z
" transform="scale(0.015625)"/>
      <path id="DejaVuSans-65" d="M 3597 1894 
L 3597 1613 
L 953 1613 
Q 991 1019 1311 708 
Q 1631 397 2203 397 
Q 2534 397 2845 478 
Q 3156 559 3463 722 
L 3463 178 
Q 3153 47 2828 -22 
Q 2503 -91 2169 -91 
Q 1331 -91 842 396 
Q 353 884 353 1716 
Q 353 2575 817 3079 
Q 1281 3584 2069 3584 
Q 2775 3584 3186 3129 
Q 3597 2675 3597 1894 
z
M 3022 2063 
Q 3016 2534 2758 2815 
Q 2500 3097 2075 3097 
Q 1594 3097 1305 2825 
Q 1016 2553 972 2059 
L 3022 2063 
z
" transform="scale(0.015625)"/>
      <path id="DejaVuSans-48" d="M 628 4666 
L 1259 4666 
L 1259 2753 
L 3553 2753 
L 3553 4666 
L 4184 4666 
L 4184 0 
L 3553 0 
L 3553 2222 
L 1259 2222 
L 1259 0 
L 628 0 
L 628 4666 
z
" transform="scale(0.015625)"/>
      <path id="DejaVuSans-6c" d="M 603 4863 
L 1178 4863 
L 1178 0 
L 603 0 
L 603 4863 
z
" transform="scale(0.015625)"/>
      <path id="DejaVuSans-67" d="M 2906 1791 
Q 2906 2416 2648 2759 
Q 2391 3103 1925 3103 
Q 1463 3103 1205 2759 
Q 947 2416 947 1791 
Q 947 1169 1205 825 
Q 1463 481 1925 481 
Q 2391 481 2648 825 
Q 2906 1169 2906 1791 
z
M 3481 434 
Q 3481 -459 3084 -895 
Q 2688 -1331 1869 -1331 
Q 1566 -1331 1297 -1286 
Q 1028 -1241 775 -1147 
L 775 -588 
Q 1028 -725 1275 -790 
Q 1522 -856 1778 -856 
Q 2344 -856 2625 -561 
Q 2906 -266 2906 331 
L 2906 616 
Q 2728 306 2450 153 
Q 2172 0 1784 0 
Q 1141 0 747 490 
Q 353 981 353 1791 
Q 353 2603 747 3093 
Q 1141 3584 1784 3584 
Q 2172 3584 2450 3431 
Q 2728 3278 2906 2969 
L 2906 3500 
L 3481 3500 
L 3481 434 
z
" transform="scale(0.015625)"/>
      <path id="DejaVuSans-49" d="M 628 4666 
L 1259 4666 
L 1259 0 
L 628 0 
L 628 4666 
z
" transform="scale(0.015625)"/>
     </defs>
     <use xlink:href="#DejaVuSans-54"/>
     <use xlink:href="#DejaVuSans-72" x="46.333984"/>
     <use xlink:href="#DejaVuSans-6f" x="85.197266"/>
     <use xlink:href="#DejaVuSans-66" x="146.378906"/>
     <use xlink:href="#DejaVuSans-69" x="181.583984"/>
     <use xlink:href="#DejaVuSans-63" x="209.367188"/>
     <use xlink:href="#DejaVuSans-6b" x="264.347656"/>
     <use xlink:href="#DejaVuSans-e1" x="320.507812"/>
     <use xlink:href="#DejaVuSans-20" x="381.787109"/>
     <use xlink:href="#DejaVuSans-66" x="413.574219"/>
     <use xlink:href="#DejaVuSans-75" x="448.779297"/>
     <use xlink:href="#DejaVuSans-6e" x="512.158203"/>
     <use xlink:href="#DejaVuSans-6b" x="575.537109"/>
     <use xlink:href="#DejaVuSans-63" x="633.447266"/>
     <use xlink:href="#DejaVuSans-65" x="688.427734"/>
     <use xlink:href="#DejaVuSans-20" x="749.951172"/>
     <use xlink:href="#DejaVuSans-48" x="781.738281"/>
     <use xlink:href="#DejaVuSans-6f" x="856.933594"/>
     <use xlink:href="#DejaVuSans-6c" x="918.115234"/>
     <use xlink:href="#DejaVuSans-6c" x="945.898438"/>
     <use xlink:href="#DejaVuSans-69" x="973.681641"/>
     <use xlink:href="#DejaVuSans-6e" x="1001.464844"/>
     <use xlink:href="#DejaVuSans-67" x="1064.84375"/>
     <use xlink:href="#DejaVuSans-20" x="1128.320312"/>
     <use xlink:href="#DejaVuSans-49" x="1160.107422"/>
     <use xlink:href="#DejaVuSans-49" x="1189.599609"/>
    </g>
   </g>
   <g id="legend_1">
    <g id="patch_7">
     <path d="M 250.209062 302.584 
L 407.72 302.584 
Q 409.72 302.584 409.72 300.584 
L 409.72 198.837125 
Q 409.72 196.837125 407.72 196.837125 
L 250.209062 196.837125 
Q 248.209062 196.837125 248.209062 198.837125 
L 248.209062 300.584 
Q 248.209062 302.584 250.209062 302.584 
z
" style="fill: #ffffff; opacity: 0.8; stroke: #cccccc; stroke-linejoin: miter"/>
    </g>
    <g id="text_13">
     <!-- Hodnota $k$ -->
     <g transform="translate(303.214531 208.435563) scale(0.1 -0.1)">
      <defs>
       <path id="DejaVuSans-64" d="M 2906 2969 
L 2906 4863 
L 3481 4863 
L 3481 0 
L 2906 0 
L 2906 525 
Q 2725 213 2448 61 
Q 2172 -91 1784 -91 
Q 1150 -91 751 415 
Q 353 922 353 1747 
Q 353 2572 751 3078 
Q 1150 3584 1784 3584 
Q 2172 3584 2448 3432 
Q 2725 3281 2906 2969 
z
M 947 1747 
Q 947 1113 1208 752 
Q 1469 391 1925 391 
Q 2381 391 2643 752 
Q 2906 1113 2906 1747 
Q 2906 2381 2643 2742 
Q 2381 3103 1925 3103 
Q 1469 3103 1208 2742 
Q 947 2381 947 1747 
z
" transform="scale(0.015625)"/>
       <path id="DejaVuSans-74" d="M 1172 4494 
L 1172 3500 
L 2356 3500 
L 2356 3053 
L 1172 3053 
L 1172 1153 
Q 1172 725 1289 603 
Q 1406 481 1766 481 
L 2356 481 
L 2356 0 
L 1766 0 
Q 1100 0 847 248 
Q 594 497 594 1153 
L 594 3053 
L 172 3053 
L 172 3500 
L 594 3500 
L 594 4494 
L 1172 4494 
z
" transform="scale(0.015625)"/>
       <path id="DejaVuSans-61" d="M 2194 1759 
Q 1497 1759 1228 1600 
Q 959 1441 959 1056 
Q 959 750 1161 570 
Q 1363 391 1709 391 
Q 2188 391 2477 730 
Q 2766 1069 2766 1631 
L 2766 1759 
L 2194 1759 
z
M 3341 1997 
L 3341 0 
L 2766 0 
L 2766 531 
Q 2569 213 2275 61 
Q 1981 -91 1556 -91 
Q 1019 -91 701 211 
Q 384 513 384 1019 
Q 384 1609 779 1909 
Q 1175 2209 1959 2209 
L 2766 2209 
L 2766 2266 
Q 2766 2663 2505 2880 
Q 2244 3097 1772 3097 
Q 1472 3097 1187 3025 
Q 903 2953 641 2809 
L 641 3341 
Q 956 3463 1253 3523 
Q 1550 3584 1831 3584 
Q 2591 3584 2966 3190 
Q 3341 2797 3341 1997 
z
" transform="scale(0.015625)"/>
       <path id="DejaVuSans-Oblique-6b" d="M 1172 4863 
L 1747 4863 
L 1197 2028 
L 3169 3500 
L 3916 3500 
L 1716 1825 
L 3322 0 
L 2625 0 
L 1131 1709 
L 800 0 
L 225 0 
L 1172 4863 
z
" transform="scale(0.015625)"/>
      </defs>
      <use xlink:href="#DejaVuSans-48" transform="translate(0 0.015625)"/>
      <use xlink:href="#DejaVuSans-6f" transform="translate(75.195312 0.015625)"/>
      <use xlink:href="#DejaVuSans-64" transform="translate(136.376953 0.015625)"/>
      <use xlink:href="#DejaVuSans-6e" transform="translate(199.853516 0.015625)"/>
      <use xlink:href="#DejaVuSans-6f" transform="translate(263.232422 0.015625)"/>
      <use xlink:href="#DejaVuSans-74" transform="translate(324.414062 0.015625)"/>
      <use xlink:href="#DejaVuSans-61" transform="translate(363.623047 0.015625)"/>
      <use xlink:href="#DejaVuSans-20" transform="translate(424.902344 0.015625)"/>
      <use xlink:href="#DejaVuSans-Oblique-6b" transform="translate(456.689453 0.015625)"/>
     </g>
    </g>
    <g id="line2d_18">
     <path d="M 252.209062 219.613688 
L 262.209062 219.613688 
L 272.209062 219.613688 
" style="fill: none; stroke: #1f77b4; stroke-width: 1.5; stroke-linecap: square"/>
    </g>
    <g id="text_14">
     <!-- k=1.0 -->
     <g transform="translate(280.209062 223.113688) scale(0.1 -0.1)">
      <defs>
       <path id="DejaVuSans-3d" d="M 678 2906 
L 4684 2906 
L 4684 2381 
L 678 2381 
L 678 2906 
z
M 678 1631 
L 4684 1631 
L 4684 1100 
L 678 1100 
L 678 1631 
z
" transform="scale(0.015625)"/>
      </defs>
      <use xlink:href="#DejaVuSans-6b"/>
      <use xlink:href="#DejaVuSans-3d" x="57.910156"/>
      <use xlink:href="#DejaVuSans-31" x="141.699219"/>
      <use xlink:href="#DejaVuSans-2e" x="205.322266"/>
      <use xlink:href="#DejaVuSans-30" x="237.109375"/>
     </g>
    </g>
    <g id="line2d_19">
     <path d="M 252.209062 234.291813 
L 262.209062 234.291813 
L 272.209062 234.291813 
" style="fill: none; stroke: #ff7f0e; stroke-width: 1.5; stroke-linecap: square"/>
    </g>
    <g id="text_15">
     <!-- k=1.8 -->
     <g transform="translate(280.209062 237.791813) scale(0.1 -0.1)">
      <use xlink:href="#DejaVuSans-6b"/>
      <use xlink:href="#DejaVuSans-3d" x="57.910156"/>
      <use xlink:href="#DejaVuSans-31" x="141.699219"/>
      <use xlink:href="#DejaVuSans-2e" x="205.322266"/>
      <use xlink:href="#DejaVuSans-38" x="237.109375"/>
     </g>
    </g>
    <g id="line2d_20">
     <path d="M 252.209062 248.969938 
L 262.209062 248.969938 
L 272.209062 248.969938 
" style="fill: none; stroke: #2ca02c; stroke-width: 1.5; stroke-linecap: square"/>
    </g>
    <g id="text_16">
     <!-- k=2.6 -->
     <g transform="translate(280.209062 252.469938) scale(0.1 -0.1)">
      <use xlink:href="#DejaVuSans-6b"/>
      <use xlink:href="#DejaVuSans-3d" x="57.910156"/>
      <use xlink:href="#DejaVuSans-32" x="141.699219"/>
      <use xlink:href="#DejaVuSans-2e" x="205.322266"/>
      <use xlink:href="#DejaVuSans-36" x="237.109375"/>
     </g>
    </g>
    <g id="line2d_21">
     <path d="M 252.209062 263.648063 
L 262.209062 263.648063 
L 272.209062 263.648063 
" style="fill: none; stroke: #d62728; stroke-width: 1.5; stroke-linecap: square"/>
    </g>
    <g id="text_17">
     <!-- k=3.4000000000000004 -->
     <g transform="translate(280.209062 267.148063) scale(0.1 -0.1)">
      <use xlink:href="#DejaVuSans-6b"/>
      <use xlink:href="#DejaVuSans-3d" x="57.910156"/>
      <use xlink:href="#DejaVuSans-33" x="141.699219"/>
      <use xlink:href="#DejaVuSans-2e" x="205.322266"/>
      <use xlink:href="#DejaVuSans-34" x="237.109375"/>
      <use xlink:href="#DejaVuSans-30" x="300.732422"/>
      <use xlink:href="#DejaVuSans-30" x="364.355469"/>
      <use xlink:href="#DejaVuSans-30" x="427.978516"/>
      <use xlink:href="#DejaVuSans-30" x="491.601562"/>
      <use xlink:href="#DejaVuSans-30" x="555.224609"/>
      <use xlink:href="#DejaVuSans-30" x="618.847656"/>
      <use xlink:href="#DejaVuSans-30" x="682.470703"/>
      <use xlink:href="#DejaVuSans-30" x="746.09375"/>
      <use xlink:href="#DejaVuSans-30" x="809.716797"/>
      <use xlink:href="#DejaVuSans-30" x="873.339844"/>
      <use xlink:href="#DejaVuSans-30" x="936.962891"/>
      <use xlink:href="#DejaVuSans-30" x="1000.585938"/>
      <use xlink:href="#DejaVuSans-30" x="1064.208984"/>
      <use xlink:href="#DejaVuSans-30" x="1127.832031"/>
      <use xlink:href="#DejaVuSans-34" x="1191.455078"/>
     </g>
    </g>
    <g id="line2d_22">
     <path d="M 252.209062 278.326188 
L 262.209062 278.326188 
L 272.209062 278.326188 
" style="fill: none; stroke: #9467bd; stroke-width: 1.5; stroke-linecap: square"/>
    </g>
    <g id="text_18">
     <!-- k=4.2 -->
     <g transform="translate(280.209062 281.826188) scale(0.1 -0.1)">
      <use xlink:href="#DejaVuSans-6b"/>
      <use xlink:href="#DejaVuSans-3d" x="57.910156"/>
      <use xlink:href="#DejaVuSans-34" x="141.699219"/>
      <use xlink:href="#DejaVuSans-2e" x="205.322266"/>
      <use xlink:href="#DejaVuSans-32" x="237.109375"/>
     </g>
    </g>
    <g id="line2d_23">
     <path d="M 252.209062 293.004313 
L 262.209062 293.004313 
L 272.209062 293.004313 
" style="fill: none; stroke: #8c564b; stroke-width: 1.5; stroke-linecap: square"/>
    </g>
    <g id="text_19">
     <!-- k=5.0 -->
     <g transform="translate(280.209062 296.504313) scale(0.1 -0.1)">
      <use xlink:href="#DejaVuSans-6b"/>
      <use xlink:href="#DejaVuSans-3d" x="57.910156"/>
      <use xlink:href="#DejaVuSans-35" x="141.699219"/>
      <use xlink:href="#DejaVuSans-2e" x="205.322266"/>
      <use xlink:href="#DejaVuSans-30" x="237.109375"/>
     </g>
    </g>
   </g>
  </g>
 </g>
 <defs>
  <clipPath id="pbce43406eb">
   <rect x="57.6" y="41.472" width="357.12" height="266.112"/>
  </clipPath>
 </defs>
</svg>
